<?xml version="1.0" encoding="utf-8"?>
<!-- Generator: Adobe Illustrator 19.0.0, SVG Export Plug-In . SVG Version: 6.00 Build 0)  -->
<svg version="1.1" id="图层_1" xmlns="http://www.w3.org/2000/svg" xmlns:xlink="http://www.w3.org/1999/xlink" x="0px" y="0px"
	 viewBox="0 0 250 300" style="enable-background:new 0 0 250 300;" xml:space="preserve">
<style type="text/css">
	.st0{fill:#FF0000;}
	.st1{fill:#BD101D;}
	.st2{fill:#FFFFFF;}
</style>
<g id="XMLID_2618_">
	<g id="XMLID_2639_">
		<g id="g3101_1_">
			<g id="g3105_1_">
				<polygon id="polygon3107_1_" class="st0" points="20.8,84.1 20.8,127.8 4.3,127.8 4.3,214.6 245.7,214.6 245.7,127.8 
					229.6,127.8 229.6,84.1 				"/>
			</g>
		</g>
		<path id="path3109_1_" class="st1" d="M0,219.1v-95.6h16.3V79.8h217.6v43.7H250v95.6H0L0,219.1z M8.6,210.3h232.7v-78.2h-16.1
			V88.4H25.1v43.7H8.8L8.6,210.3L8.6,210.3z"/>
		<polygon id="polygon3111_1_" class="st2" points="37.8,106.8 30.4,96.7 30.4,77.1 59.8,69.7 59.9,108 		"/>
		<polygon id="polygon3113_1_" class="st1" points="213.1,178.9 213.1,215.1 35.2,214.1 35.2,180 89.6,192.2 		"/>
		<polygon id="polygon3115_1_" class="st1" points="141.8,127.4 108.4,137.5 36,132.1 36,157.8 82,170.9 213,159.3 213,132.4 
			183.1,152 169.7,146.5 		"/>
		<polygon id="polygon3117_1_" class="st2" points="8.1,146 19.8,151 19.8,137.4 24.7,141.4 24.7,132.1 36,132.1 57.1,163.8 
			64.9,165.9 75.5,209.8 81,211.9 84.2,230.3 108.6,230.3 100.8,167.3 142.3,140.2 164.8,159.3 170.3,157.1 172.3,162.9 213,159.3 
			209.5,150.2 186.6,144.7 145.3,111 100.1,128.1 86.3,109.8 107.1,88.6 127,88.6 135,95.2 135,88.6 150.6,88.6 146.7,79.8 
			100.9,72.5 58.6,99.5 16.3,113.8 8.1,122.6 		"/>
	</g>
</g>
</svg>
