<?xml version="1.0" encoding="utf-8"?>
<!-- Generator: Adobe Illustrator 19.0.0, SVG Export Plug-In . SVG Version: 6.00 Build 0)  -->
<svg version="1.1" id="图层_1" xmlns="http://www.w3.org/2000/svg" xmlns:xlink="http://www.w3.org/1999/xlink" x="0px" y="0px"
	 viewBox="0 0 250 300" style="enable-background:new 0 0 250 300;" xml:space="preserve">
<style type="text/css">
	.st0{fill:#A41E11;}
	.st1{fill:#D82C20;}
	.st2{fill:#FFFFFF;}
	.st3{fill:#7A0C00;}
	.st4{fill:#AD2115;}
</style>
<g id="XMLID_1220_">
	<g id="XMLID_1233_" transform="translate(-166.32586,-222.11295)">
		<path id="XMLID_1244_" class="st0" d="M406.5,430.2c-13.3,7-82.5,35.4-97.2,43c-14.7,7.7-22.9,7.6-34.5,2
			c-11.6-5.6-85.2-35.3-98.4-41.6c-6.6-3.2-10.1-5.8-10.1-8.4v-25.3c0,0,95.7-20.8,111.2-26.4c15.5-5.5,20.8-5.7,34-0.9
			c13.2,4.8,91.8,19,104.8,23.8c0,0,0,22.6,0,24.9C416.3,423.9,413.3,426.7,406.5,430.2L406.5,430.2z"/>
		<path id="XMLID_1243_" class="st1" d="M406.5,404.9c-13.3,7-82.5,35.4-97.2,43c-14.7,7.7-22.9,7.6-34.5,2
			c-11.6-5.6-85.2-35.3-98.4-41.6c-13.2-6.3-13.5-10.7-0.5-15.8c13-5.1,86.2-33.8,101.6-39.3c15.5-5.5,20.8-5.7,34-0.9
			c13.2,4.8,81.9,32.2,94.9,36.9C419.4,394,419.9,398,406.5,404.9L406.5,404.9z"/>
		<path id="XMLID_1242_" class="st0" d="M406.5,389c-13.3,7-82.5,35.4-97.2,43c-14.7,7.7-22.9,7.6-34.5,2
			c-11.6-5.6-85.2-35.3-98.4-41.6c-6.6-3.2-10.1-5.8-10.1-8.4v-25.3c0,0,95.7-20.8,111.2-26.4c15.5-5.5,20.8-5.7,34-0.9
			c13.2,4.8,91.8,19,104.8,23.8c0,0,0,22.6,0,24.9C416.3,382.7,413.3,385.5,406.5,389z"/>
		<path id="XMLID_1241_" class="st1" d="M406.5,363.7c-13.3,7-82.5,35.4-97.2,43c-14.7,7.7-22.9,7.6-34.5,2
			c-11.6-5.6-85.2-35.3-98.4-41.6s-13.5-10.7-0.5-15.8c13-5.1,86.2-33.8,101.6-39.3c15.5-5.5,20.8-5.7,34-0.9
			c13.2,4.8,81.9,32.2,94.9,36.9C419.4,352.8,419.9,356.8,406.5,363.7L406.5,363.7z"/>
		<path id="XMLID_1240_" class="st0" d="M406.5,346.3c-13.3,7-82.5,35.4-97.2,43c-14.7,7.7-22.9,7.6-34.5,2
			c-11.6-5.6-85.2-35.3-98.4-41.6c-6.6-3.2-10.1-5.8-10.1-8.4v-25.3c0,0,95.7-20.8,111.2-26.4c15.5-5.5,20.8-5.7,34-0.9
			c13.2,4.8,91.8,19,104.8,23.8c0,0,0,22.6,0,24.9C416.3,340,413.3,342.7,406.5,346.3L406.5,346.3z"/>
		<path id="XMLID_1239_" class="st1" d="M406.5,321c-13.3,7-82.5,35.4-97.2,43c-14.7,7.7-22.9,7.6-34.5,2
			c-11.6-5.6-85.2-35.3-98.4-41.6s-13.5-10.7-0.5-15.8c13-5.1,86.2-33.8,101.6-39.3c15.5-5.5,20.8-5.7,34-0.9
			c13.2,4.8,81.9,32.2,94.9,36.9C419.4,310.1,419.9,314,406.5,321L406.5,321z"/>
		<polygon id="XMLID_1238_" class="st2" points="324.1,296.6 302.4,298.9 297.6,310.6 289.7,297.5 264.7,295.3 283.4,288.6 
			277.8,278.2 295.3,285.1 311.7,279.7 307.3,290.4 		"/>
		<polygon id="XMLID_1237_" class="st2" points="296.3,353.3 255.9,336.5 313.8,327.6 		"/>
		<ellipse id="XMLID_1236_" class="st2" cx="240.2" cy="315.1" rx="31" ry="12"/>
		<polygon id="XMLID_1235_" class="st3" points="349.7,299.8 384,313.4 349.7,326.9 		"/>
		<polygon id="XMLID_1234_" class="st4" points="311.8,314.8 349.7,299.8 349.7,326.9 346,328.4 		"/>
	</g>
</g>
</svg>
