<?xml version="1.0" encoding="utf-8"?>
<!-- Generator: Adobe Illustrator 19.0.0, SVG Export Plug-In . SVG Version: 6.00 Build 0)  -->
<svg version="1.1" id="图层_1" xmlns="http://www.w3.org/2000/svg" xmlns:xlink="http://www.w3.org/1999/xlink" x="0px" y="0px"
	 viewBox="0 0 200.3 300" style="enable-background:new 0 0 200.3 300;" xml:space="preserve">
<style type="text/css">
	.st0{fill:url(#XMLID_15_);}
	.st1{fill:url(#XMLID_16_);}
	.st2{fill:url(#XMLID_17_);}
	.st3{fill:url(#XMLID_18_);}
	.st4{fill:url(#XMLID_19_);}
	.st5{fill:url(#XMLID_20_);}
	.st6{fill:url(#XMLID_21_);}
	.st7{fill:url(#XMLID_22_);}
	.st8{fill:#52752F;}
	.st9{fill:url(#XMLID_23_);}
	.st10{fill:url(#XMLID_24_);}
	.st11{fill:url(#XMLID_25_);}
	.st12{opacity:0.5;fill:url(#XMLID_26_);enable-background:new    ;}
	.st13{fill:url(#XMLID_27_);}
	.st14{opacity:0.8;}
	.st15{fill:url(#XMLID_28_);}
</style>
<g id="Layer_1_3_">
	<g id="XMLID_3256_">
		<g id="XMLID_3355_">
			
				<linearGradient id="XMLID_15_" gradientUnits="userSpaceOnUse" x1="-11.2796" y1="206.6591" x2="149.8376" y2="6.0733" gradientTransform="matrix(1 0 0 -1 0 302)">
				<stop  offset="0" style="stop-color:#4C4C4E"/>
				<stop  offset="1" style="stop-color:#040405"/>
			</linearGradient>
			<path id="XMLID_3356_" class="st0" d="M41.7,87.5V70.8H23.8c0,0-13,0-13,17s0,39.5,0,39.5S10.6,138.2,0,138.2v15.5h4.8
				c0,0,5.9-0.4,5.9,7c0,7.4,0,101.3,0,101.3S10.1,279,25.8,279s137.7,0,137.7,0s14-0.9,14-16.9s0-18,0-18s-0.1-9.9,10.9-9.9v-15
				c0,0-10.7,0.2-10.7-11.2c0-11.3,0-15.8,0-15.8s0.4-18.1-14.3-18.1c-14.7,0-16.9,0-16.9,0v17.3h8.6c0,0,6.3,0.3,6.3,8.3
				c0,8,0,16.7,0,16.7s1.1,10.2,12.8,10.2c0,0-13,0.7-13,12.6c0,11.9,0,14,0,14s0.7,9-7.3,9s-120,0-120,0S27,262,27,252.5s0-94,0-94
				s0.2-12.9-13.3-12.9c0,0,13.4-0.9,13.4-11.3s0-39.7,0-39.7s0.7-7.3,7.2-7.3C40.8,87.4,41.7,87.5,41.7,87.5z"/>
		</g>
		<g id="XMLID_3340_">
			<g id="XMLID_3353_">
				
					<linearGradient id="XMLID_16_" gradientUnits="userSpaceOnUse" x1="59.212" y1="119.7501" x2="87.8678" y2="102.9891" gradientTransform="matrix(1 0 0 -1 0 302)">
					<stop  offset="0" style="stop-color:#5A5B5D"/>
					<stop  offset="0.5539" style="stop-color:#2D2D2E"/>
					<stop  offset="0.8342" style="stop-color:#1B1B1B"/>
					<stop  offset="0.8829" style="stop-color:#222222"/>
					<stop  offset="0.9541" style="stop-color:#343436"/>
					<stop  offset="1" style="stop-color:#444446"/>
				</linearGradient>
				<path id="XMLID_3354_" class="st1" d="M63.3,240.3c0,0-2.6,3-16.6-4.9c-13.9-8-11.8-11.3-11.8-11.3l49.8-87l28.4,16.3
					L63.3,240.3z"/>
			</g>
			<g id="XMLID_3351_">
				
					<linearGradient id="XMLID_17_" gradientUnits="userSpaceOnUse" x1="57.2346" y1="116.0367" x2="85.7703" y2="99.3459" gradientTransform="matrix(0.9979 3.610000e-03 -3.610000e-03 -0.9937 2.929 296.8581)">
					<stop  offset="0" style="stop-color:#CECED0"/>
					<stop  offset="8.500000e-02" style="stop-color:#D6D7D9"/>
					<stop  offset="0.1928" style="stop-color:#DADBDD"/>
					<stop  offset="0.3611" style="stop-color:#C8C9CB"/>
					<stop  offset="0.6967" style="stop-color:#9A9B9E"/>
					<stop  offset="0.8342" style="stop-color:#858689"/>
					<stop  offset="0.8892" style="stop-color:#8C8D90"/>
					<stop  offset="0.9695" style="stop-color:#9FA1A4"/>
					<stop  offset="1" style="stop-color:#A8AAAD"/>
				</linearGradient>
				<path id="XMLID_3352_" class="st2" d="M64.8,237.7c0,0-2.6,3-16.5-5c-13.9-8-11.8-11.3-11.8-11.3L84,138.7l28.4,16.3L64.8,237.7
					z"/>
			</g>
			<g id="XMLID_3349_">
				
					<linearGradient id="XMLID_18_" gradientUnits="userSpaceOnUse" x1="51.0783" y1="105.4557" x2="79.6123" y2="88.7661" gradientTransform="matrix(1.0048 -8.327000e-03 8.341000e-03 -1.0145 10.6956 283.359)">
					<stop  offset="0" style="stop-color:#557435"/>
					<stop  offset="0.2052" style="stop-color:#4B573F"/>
					<stop  offset="0.3679" style="stop-color:#444446"/>
					<stop  offset="0.5402" style="stop-color:#474B43"/>
					<stop  offset="0.7922" style="stop-color:#4D5F3D"/>
					<stop  offset="1" style="stop-color:#557435"/>
				</linearGradient>
				<path id="XMLID_3350_" class="st3" d="M70.6,227.6c0,0-2.7,3.1-16.6-4.9c-13.9-8-11.8-11.4-11.8-11.4l42.6-74.3l28.4,16.3
					L70.6,227.6z"/>
			</g>
			<g id="XMLID_3347_">
				
					<linearGradient id="XMLID_19_" gradientUnits="userSpaceOnUse" x1="48.3737" y1="100.5855" x2="76.7916" y2="83.9639" gradientTransform="matrix(1.0037 -6.382000e-03 6.382000e-03 -1.0111 12.1752 280.83)">
					<stop  offset="0" style="stop-color:#557435"/>
					<stop  offset="7.570000e-02" style="stop-color:#5D882D"/>
					<stop  offset="0.1576" style="stop-color:#59832A"/>
					<stop  offset="0.6884" style="stop-color:#42681B"/>
					<stop  offset="1" style="stop-color:#3A5E15"/>
				</linearGradient>
				<path id="XMLID_3348_" class="st4" d="M70.8,227.2c0,0-2.7,3.1-16.6-4.9c-13.9-8-11.8-11.4-11.8-11.4l38.9-67.8l28.4,16.3
					L70.8,227.2z"/>
			</g>
			<g id="XMLID_3345_">
				
					<linearGradient id="XMLID_20_" gradientUnits="userSpaceOnUse" x1="-236.8564" y1="-397.1353" x2="-208.5106" y2="-413.7147" gradientTransform="matrix(0.9377 0.1087 -0.1087 -0.8102 255.4614 -143.9062)">
					<stop  offset="0" style="stop-color:#90969C"/>
					<stop  offset="1" style="stop-color:#444446"/>
				</linearGradient>
				<path id="XMLID_3346_" class="st5" d="M98.5,178.9c0,0-2.2,2.2-16.1-5.8c-13.9-8-12.3-10.5-12.3-10.5l13.4-23.8l28.4,16.3
					L98.5,178.9z"/>
			</g>
			<g id="XMLID_3343_">
				
					<linearGradient id="XMLID_21_" gradientUnits="userSpaceOnUse" x1="-238.071" y1="-400.1636" x2="-210.0874" y2="-416.5311" gradientTransform="matrix(0.9367 0.1104 -0.1104 -0.8073 256.0223 -144.8634)">
					<stop  offset="0" style="stop-color:#BCC6CD"/>
					<stop  offset="0.156" style="stop-color:#B4BEC8"/>
					<stop  offset="0.8735" style="stop-color:#747A81"/>
					<stop  offset="1" style="stop-color:#90969C"/>
				</linearGradient>
				<path id="XMLID_3344_" class="st6" d="M98.7,178.6c0,0-2.2,2.2-16.1-5.8c-13.9-8-12.3-10.5-12.3-10.5l13.9-23.8l28.4,16.3
					L98.7,178.6z"/>
			</g>
			<g id="XMLID_3341_">
				
					<radialGradient id="XMLID_22_" cx="-165.302" cy="-236.6067" r="25.1295" gradientTransform="matrix(0.8892 0.4409 0.276 -0.6312 304.2635 81.3484)" gradientUnits="userSpaceOnUse">
					<stop  offset="0" style="stop-color:#1B1B1B;stop-opacity:0.9"/>
					<stop  offset="1" style="stop-color:#1B1B1B;stop-opacity:0"/>
				</radialGradient>
				<path id="XMLID_3342_" class="st7" d="M98.7,178.6c0,0-2.2,2.2-16.1-5.8c-13.9-8-12.3-10.5-12.3-10.5l15-25.6l28.4,16.3
					L98.7,178.6z"/>
			</g>
		</g>
		<path id="XMLID_3337_" class="st8" d="M124.9,22.7C83.5,22.7,50,56.2,50,97.5s33.5,74.9,74.9,74.9s74.9-33.5,74.9-74.9
			C199.8,56.2,166.2,22.7,124.9,22.7z M125.4,150.8c-29.9,0-54.1-24.2-54.1-54.1s24.2-54.1,54.1-54.1s54.1,24.2,54.1,54.1
			C179.5,126.6,155.3,150.8,125.4,150.8z"/>
		
			<linearGradient id="XMLID_23_" gradientUnits="userSpaceOnUse" x1="72.4878" y1="258.4954" x2="183.594" y2="147.3889" gradientTransform="matrix(1 0 0 -1 0 302)">
			<stop  offset="0" style="stop-color:#5E8830"/>
			<stop  offset="0.4614" style="stop-color:#6B8F3F"/>
			<stop  offset="0.85" style="stop-color:#537C26"/>
			<stop  offset="0.8795" style="stop-color:#598329"/>
			<stop  offset="0.9226" style="stop-color:#699730"/>
			<stop  offset="0.97" style="stop-color:#80B43B"/>
		</linearGradient>
		<path id="XMLID_3334_" class="st9" d="M125.4,21.6c-41.4,0-74.9,33.5-74.9,74.9s33.5,74.9,74.9,74.9s74.9-33.5,74.9-74.9
			C200.3,55.1,166.8,21.6,125.4,21.6z M125.4,150.8c-29.9,0-54.1-24.2-54.1-54.1s24.2-54.1,54.1-54.1s54.1,24.2,54.1,54.1
			C179.5,126.6,155.3,150.8,125.4,150.8z"/>
		
			<radialGradient id="XMLID_24_" cx="124.1973" cy="207.824" r="75.3278" gradientTransform="matrix(0.994 0 0 -0.994 0.9004 302.4982)" gradientUnits="userSpaceOnUse">
			<stop  offset="0.6308" style="stop-color:#80B43B"/>
			<stop  offset="0.7689" style="stop-color:#80B43B;stop-opacity:0"/>
		</radialGradient>
		<path id="XMLID_3331_" class="st10" d="M124.4,21C83,21,49.5,54.6,49.5,95.9s33.5,74.9,74.9,74.9s74.9-33.5,74.9-74.9
			C199.2,54.6,165.7,21,124.4,21z M125.4,150.8c-29.9,0-54.1-24.2-54.1-54.1s24.2-54.1,54.1-54.1s54.1,24.2,54.1,54.1
			C179.5,126.6,155.3,150.8,125.4,150.8z"/>
		
			<linearGradient id="XMLID_25_" gradientUnits="userSpaceOnUse" x1="77.4024" y1="231.7518" x2="174.4611" y2="178.221" gradientTransform="matrix(1 0 0 -1 0 302)">
			<stop  offset="6.796080e-03" style="stop-color:#40692A"/>
			<stop  offset="0.1044" style="stop-color:#49732C"/>
			<stop  offset="0.4857" style="stop-color:#679634"/>
			<stop  offset="0.7979" style="stop-color:#79AC39"/>
			<stop  offset="1" style="stop-color:#80B43B"/>
		</linearGradient>
		<path id="XMLID_3328_" class="st11" d="M125.4,41.3C94.8,41.3,70,66.1,70,96.7s24.8,55.4,55.4,55.4s55.4-24.8,55.4-55.4
			S156,41.3,125.4,41.3z M125.4,150.8c-29.9,0-54.1-24.2-54.1-54.1s24.2-54.1,54.1-54.1s54.1,24.2,54.1,54.1
			C179.5,126.6,155.3,150.8,125.4,150.8z"/>
		
			<linearGradient id="XMLID_26_" gradientUnits="userSpaceOnUse" x1="83.7989" y1="246.8957" x2="167.3446" y2="163.3502" gradientTransform="matrix(1 0 0 -1 0 302)">
			<stop  offset="4.823020e-03" style="stop-color:#768290"/>
			<stop  offset="3.510000e-02" style="stop-color:#8190A2"/>
			<stop  offset="9.260000e-02" style="stop-color:#93A6BD"/>
			<stop  offset="0.1552" style="stop-color:#A1B7D2"/>
			<stop  offset="0.2243" style="stop-color:#ABC4E1"/>
			<stop  offset="0.3053" style="stop-color:#B0CBEA"/>
			<stop  offset="0.4267" style="stop-color:#B2CDED"/>
			<stop  offset="0.7762" style="stop-color:#D3DFE4"/>
			<stop  offset="0.8252" style="stop-color:#CFDBE0"/>
			<stop  offset="0.8749" style="stop-color:#C5CFD4"/>
			<stop  offset="0.9249" style="stop-color:#B2BABF"/>
			<stop  offset="0.9748" style="stop-color:#999EA3"/>
			<stop  offset="1" style="stop-color:#8A8D92"/>
		</linearGradient>
		<circle id="XMLID_3327_" class="st12" cx="125.4" cy="96.7" r="54.1"/>
		<g id="XMLID_3325_">
			
				<radialGradient id="XMLID_27_" cx="150.3026" cy="223.8691" r="40.2233" gradientTransform="matrix(0.994 0 0 -0.994 0.9004 302.4982)" gradientUnits="userSpaceOnUse">
				<stop  offset="0" style="stop-color:#FFFFFF"/>
				<stop  offset="1" style="stop-color:#FFFFFF;stop-opacity:0"/>
			</radialGradient>
			<path id="XMLID_3326_" class="st13" d="M126,68.6c15.8,0,28.7,12.8,28.7,28.6c0,2.6-0.4,5.1-1,7.5l18.3,6.7
				c1.4-4.5,2.1-9.2,2.1-14.2c0-26.6-21.6-48.1-48.1-48.1c-0.4,0-0.7,0-1.1,0v19.5C125.2,68.6,125.6,68.6,126,68.6z"/>
		</g>
		<g id="XMLID_3323_" class="st14">
			
				<radialGradient id="XMLID_28_" cx="93.399" cy="182.3561" r="13.5605" gradientTransform="matrix(0.994 0 0 -0.994 0.9004 302.4982)" gradientUnits="userSpaceOnUse">
				<stop  offset="0" style="stop-color:#FFFFFF"/>
				<stop  offset="1" style="stop-color:#FFFFFF;stop-opacity:0"/>
			</radialGradient>
			<path id="XMLID_3324_" class="st15" d="M103.4,126.4c-6.6,0-11.9-5.3-11.9-11.9c0-1.6,0.3-3.2,0.9-4.6l-8.9-3.5
				c-1.1,2.6-1.7,5.4-1.7,8.4c0,11.8,9.5,21.3,21.3,21.3c0.9,0,1.8-0.1,2.6-0.2v-9.7C104.9,126.3,104.2,126.4,103.4,126.4z"/>
		</g>
	</g>
</g>
</svg>
