<svg viewBox="0 0 200 200" xmlns="http://www.w3.org/2000/svg"><path d="m137.54 138.93c-.79-1-1.68-2-2.62-2.93.93 1 1.82 2 2.62 2.93z" fill="#fff"/><path d="m144.87 117c.18-.24.37-.49.55-.75-.2.31-.41.6-.63.89z" fill="#fff"/><path d="m61.5 135.88a1.34 1.34 0 0 1 -.07.18c-.47 1.36-1 2.68-1.45 4h.1a6.47 6.47 0 0 1 4.68 1.94c.64-1.21 1.35-2.43 2.1-3.61a43.18 43.18 0 0 1 -5.36-2.51z" fill="#ba8448"/><path d="m143.77 130.06a.83.83 0 0 1 .11.51c-.08.74-1 1.61-2.59 2.55 5.14-.45 7.48-2.25 9-4.36a1.23 1.23 0 0 1 -.24-.54c0-.1.16-.16.44-.2a14.21 14.21 0 0 1 -1.14-1 7.73 7.73 0 0 1 -5.1 3.8 51.82 51.82 0 0 0 -4.19-7.26c1.18 1.78 2.3 3.97 3.71 6.5z" fill="#895c2f"/><path d="m61.5 135.88-.31-.17c-2.18-1.26-2.23-3.93-1.46-6.29-.9 1.61-1.73 3.27-2.5 4.93s-1.44 3.42-2 5.19a17.26 17.26 0 0 0 -.56 1.72 8.37 8.37 0 0 1 4.46-1.17h.87c.5-1.35 1-2.67 1.45-4a1.34 1.34 0 0 0 .05-.21z" fill="#895c2f"/><path d="m78 143.11a12.3 12.3 0 0 1 1.69-1.35c-1.42-.22-2.83-.48-4.21-.78a5.84 5.84 0 0 1 2.52 2.13z" fill="#fff8ef"/><path d="m90.47 143.24.06-.51h-.47a4.92 4.92 0 0 1 .41.51z" fill="#fff8ef"/><path d="m68.22 138.92c-.92 1.42-1.77 2.89-2.52 4.34a10.88 10.88 0 0 1 7.15-2.82h.5a53.23 53.23 0 0 1 -5.13-1.52z" fill="#fff8ef"/><path d="m134.9 136a115.35 115.35 0 0 1 -19.39 4.88c-.25.47-.5.92-.75 1.36.07 0 .13.07.27.13l.06.07a15.21 15.21 0 0 1 2.84 2.27h7.76a25.21 25.21 0 0 1 3.58-3.06c.07-.06.13-.06.2-.13a15.25 15.25 0 0 1 8.2-2.36h.07l-.2-.24c-.8-.92-1.69-1.92-2.64-2.92z" fill="#fff8ef"/><path d="m66.86 138.41c-.75 1.18-1.46 2.4-2.1 3.61a6.27 6.27 0 0 1 .89 1.16 48.17 48.17 0 0 1 2.51-4.28z" fill="#e5d0af"/><path d="m136.24 135.51-1.32.49c.94 1 1.83 2 2.62 2.93l.2.24a13 13 0 0 1 1.75.13 43.29 43.29 0 0 0 -3.25-3.79z" fill="#e5d0af"/><path d="m152.5 132.51c.06-1-1.61-2.74-2.25-3.72-1.48 2.11-3.82 3.91-9 4.36a34.45 34.45 0 0 1 -5 2.36 43.29 43.29 0 0 1 3.25 3.79 10.06 10.06 0 0 1 7 4.27 13.61 13.61 0 0 0 6-11.06z" fill="#ba8448"/><path d="m154.59 139.9h.15a41.28 41.28 0 0 0 2.76-6.68 65.76 65.76 0 0 1 -2.91 6.68z" fill="#895c2f"/><path d="m150.45 128.05c-.28 0-.44.1-.44.2a1.23 1.23 0 0 0 .24.54c.64 1 2.31 2.72 2.25 3.72a13.61 13.61 0 0 1 -6 11.06 11.22 11.22 0 0 1 .88 1.57 6.19 6.19 0 0 1 .39-1.18c1-2.44 3.57-4 6.81-4.06a65.76 65.76 0 0 0 2.91-6.69q.31-.87.51-1.56a17.17 17.17 0 0 1 -7.55-3.6z" fill="#e3ac5e"/><path d="m150.45 128.05a17.17 17.17 0 0 0 7.56 3.6 8.88 8.88 0 0 0 1.76.14c4.46-.13 9.52-2.23 8.79-4.72s-5.05.46-5.45-1.32 5.06-4.92 2.89-7.28c-2-2.17-4.4 3.41-6.76 2.62s.46-6.23-2.49-6.56c-3.48-.33-2.17 7.42-4.79 7.55-1.84.19-4.73-1.12-4.93.19-.22 1.5.73 3.21 2.28 4.76a14.21 14.21 0 0 0 1.14 1.02z" fill="#fdd5c4"/><path d="m134.9 136 1.32-.49a34.45 34.45 0 0 0 5-2.36c1.59-.94 2.51-1.81 2.59-2.55a.83.83 0 0 0 -.11-.51c-1.41-2.53-2.53-4.72-3.76-6.48a31.19 31.19 0 0 1 -4.53 3 50.55 50.55 0 0 1 -10 4c-2.17.61-4.32 1.14-6.5 1.62a41.36 41.36 0 0 1 -3.49 8.72 115.35 115.35 0 0 0 19.48-4.95z" fill="#e3ac5e"/><path d="m72.59 133a78.86 78.86 0 0 1 -10.11-3.61q-1.17-.52-2.34-1.08a10.7 10.7 0 0 0 -.41 1.07c-.77 2.36-.72 5 1.46 6.29l.31.17a43.18 43.18 0 0 0 5.36 2.53l1.3.49h.06a53.23 53.23 0 0 0 5.16 1.56 5.72 5.72 0 0 1 2.1.5c1.38.3 2.79.56 4.21.78a8.56 8.56 0 0 1 4.68-1.54 6.67 6.67 0 0 1 2 .26 7.71 7.71 0 0 1 3.72 2.24h.47c.13-1.27.29-2.54.4-3.76s.29-2.23.48-3.29a69 69 0 0 1 -18.85-2.61z" fill="#e3ac5e"/><path d="m134.37 42.1c3.94-3.8 11.5-16.9 16.34-18-6.55-.4-13.13 9-23 11.9l.72.5a30.33 30.33 0 0 1 5.94 5.6z" fill="#fff8ef"/><path d="m67.58 40.44c.42-.46.84-.91 1.27-1.34a29.31 29.31 0 0 1 3.94-3.1c.81-.54 1.63-1 2.47-1.5a22.34 22.34 0 0 1 -7.33-.93c-8-2.88-17.88-4.92-23.78-.43 6.95-3.52 17.85 5.73 23.43 7.3z" fill="#ba8448"/><path d="m134.37 42.1c.36.44.71.88 1 1.34a36.38 36.38 0 0 1 4.47 8.73c.27.79.51 1.58.74 2.37.14.48.26 1 .39 1.43a6.31 6.31 0 0 0 .73.28 5.62 5.62 0 0 0 1.51.2h.34c8.94-6.06 23.42-26.39 8.56-32.3a2.34 2.34 0 0 0 -1.44-.06c-4.8 1.11-12.36 14.21-16.3 18.01z" fill="#fdd5c4"/><path d="m48.11 53.59v-.9a4.53 4.53 0 0 1 1-2.88.77.77 0 0 1 .46-.24c1.31-.13 5 1.05 7.61.66 2.09-.3 4.07-.53 6-.72.42-.64.81-1.29 1.18-1.94l.35-.62v-.05a29.73 29.73 0 0 0 2.65-6l-.17-.07c.12-.13.23-.26.35-.38-5.54-1.58-16.44-10.83-23.39-7.29a8.14 8.14 0 0 0 -3.15 3.06c-2.9 4.55 1.18 11.89 7.11 17.37z" fill="#fdd5c4"/><path d="m145.42 116.21c-.18.26-.37.51-.55.75l-.12.13c-4.78 6.36-13.18 10.38-25.29 13.09-.13.67-.28 1.33-.46 2 2.18-.48 4.33-1 6.5-1.62a50.55 50.55 0 0 0 10-4 31.19 31.19 0 0 0 4.53-3 25.64 25.64 0 0 0 3.86-3.72 17.65 17.65 0 0 0 1.64-2.17 9.33 9.33 0 0 0 .72-1.18 6.86 6.86 0 0 0 .46-1.25c0-.13.09-.25.14-.37-.17.3-.35.6-.53.9a.94.94 0 0 1 -.9.44z" fill="#e5d0af"/><path d="m143.55 70.15a10.81 10.81 0 0 0 .53 1.91l.2.39.06.07.07.06.05.1c-.3-.92-.6-1.84-.91-2.75v.06z" fill="#e5d0af"/><path d="m48.63 118.6c-16.13-17.41.64-34.45 6.75-46.6-.08-.77-.13-1.54-.18-2.3v-.45c-.31.86-.67 1.78-1.05 2.82q-1.15 2.25-2.56 4.52c-1.84 3-3.74 6-5.52 9.06a51.92 51.92 0 0 0 -4.39 9.91 25 25 0 0 0 -1 11 25.29 25.29 0 0 0 4.2 10.24c.53.72 1.12 1.44 1.71 2.16.33.33.59.72.92 1.05s.72.66 1 1a35.66 35.66 0 0 0 4.4 3.34 59.71 59.71 0 0 0 7.17 4q1.17.56 2.34 1.08a78.86 78.86 0 0 0 10.17 3.57 69 69 0 0 0 18.82 2.64c.1-.61.22-1.19.34-1.77-19.02.51-37.25-8.98-43.12-15.27z" fill="#e5d0af"/><path d="m64.72 46.92-.35.62.19-.15c.05-.15.11-.31.16-.47z" fill="#e5d0af"/><path d="m64.72 94.28c-.52-3.29 0-5.38 1.39-6.75a18.16 18.16 0 0 1 -7.11-8.11c-2.67-1.85-3.34-4.61-3.62-7.43-6.11 12.16-22.88 29.2-6.75 46.61 5.87 6.29 24.1 15.78 43.12 15.31a54.32 54.32 0 0 1 3.64-11.11c-16.98-1.86-28.97-17.53-30.67-28.52z" fill="#fff8ef"/><path d="m144.75 117.09c.22-.29.43-.58.63-.89a.53.53 0 0 1 -.25-.1 1 1 0 0 1 -.4-.53l-.39-.12c-.33-.59-.13-.46-.2-.59s.07-.27.07-.4l.2-.59.32-1.05a43.06 43.06 0 0 0 2-8.6 19.61 19.61 0 0 0 0-4.4 10.37 10.37 0 0 0 -1.31-4 4.29 4.29 0 0 0 -.66-.85c-.26-.27-.46-.53-.72-.79a17.35 17.35 0 0 0 -1.64-1.45 22.19 22.19 0 0 0 -3.74-2.29l-.33-.13c0 .2.09.4.13.62.06.39.1.79.13 1.18v1.8c-.46 8.62-8.3 18.12-19.94 23.91a21.51 21.51 0 0 1 .73 2.44 23.21 23.21 0 0 1 0 9.92c12.19-2.71 20.62-6.73 25.37-13.09z" fill="#fff8ef"/><path d="m150.54 88.5.09.41z" fill="#e5bfa1"/><path d="m140.62 54.54c.13.48.25 1 .37 1.42-.11-.47-.23-.96-.37-1.42z" fill="#e5bfa1"/><path d="m144.34 72.52-.06-.07-.2-.39a10.81 10.81 0 0 1 -.53-1.91v-.16c0 .21.07.42.11.61a7.28 7.28 0 0 0 .59 1.91l.07.13.06.13.13.26.26.53.6 1.05c.72 1.38 1.44 2.82 2.1 4.26a54 54 0 0 1 3 9 52.22 52.22 0 0 0 -5.28-14l-.59-1-.08-.16-.05-.1z" fill="#e5bfa1"/><path d="m64.83 47.19c0-.11-.06-.21-.08-.32v.05c0 .16-.11.32-.16.47z" fill="#e5bfa1"/><path d="m145.19 94.9a18.56 18.56 0 0 0 -6.88-4.9l.06.31.33.13a22.19 22.19 0 0 1 3.74 2.29 17.35 17.35 0 0 1 1.64 1.45c.26.26.46.52.72.79a4.29 4.29 0 0 1 .66.85 10.37 10.37 0 0 1 1.31 4 19.61 19.61 0 0 1 0 4.4 43.06 43.06 0 0 1 -2 8.6l-.32 1.05-.2.59c0 .13-.07.2-.07.4s-.13 0 .2.59l.39.12a.77.77 0 0 1 0-.52 1.11 1.11 0 0 0 .07-.16h-.07c.1-.16.18-.32.27-.48l.05-.11c.91-3.1 4.65-14.3.1-19.4z" fill="#e5bfa1"/><path d="m68.85 39.1c-.43.43-.85.88-1.27 1.34-.12.12-.23.25-.35.38l.17.07a29.73 29.73 0 0 1 -2.65 6c0 .11 0 .21.08.32l.85-.61a12.08 12.08 0 0 1 1.32-2.77c4.74-7.42 16-13.19 33.43-13.13 27.15.3 35.57 12.89 38.87 24.55.7.28 1.26.53 1.69.71-.12-.47-.24-.94-.37-1.42-.23-.79-.47-1.58-.74-2.37a36.38 36.38 0 0 0 -4.47-8.73c-.33-.46-.68-.9-1-1.34a30.33 30.33 0 0 0 -6-5.62l-.72-.5a35.19 35.19 0 0 0 -8-4 61 61 0 0 0 -19-3.22 54.21 54.21 0 0 0 -19.1 2.89 42.06 42.06 0 0 0 -6.33 2.9c-.84.47-1.66 1-2.47 1.5a29.31 29.31 0 0 0 -3.94 3.05z" fill="#895c2f"/><path d="m147.43 78.88c-.66-1.44-1.38-2.88-2.1-4.26l-.6-1.05-.26-.53-.13-.26-.06-.13-.07-.13a7.28 7.28 0 0 1 -.59-1.91c0-.19-.07-.4-.11-.61-.24.48-.48 1-.74 1.47a4.37 4.37 0 0 1 .19 1.07v.54a.28.28 0 0 1 0 .09c.05.09.1.18.14.27 13.2 22.64 4.4 37.35 2.1 41.15-.45.78-.41.56-.14-.32l-.05.11c-.09.16-.17.32-.27.48h.07a1.11 1.11 0 0 1 -.07.16.77.77 0 0 0 0 .52 1 1 0 0 0 .4.53.53.53 0 0 0 .25.1.94.94 0 0 0 .89-.43c.18-.3.36-.6.53-.9a35.87 35.87 0 0 0 4.66-17.35 42.73 42.73 0 0 0 -.87-8.62l-.09-.41-.09-.49a.83.83 0 0 1 0-.15 54 54 0 0 0 -2.99-8.94z" fill="#895c2f"/><path d="m136.44 82.84a5.81 5.81 0 0 1 -2.05 1.3 9.63 9.63 0 0 1 3.92 5.86 18.56 18.56 0 0 1 6.88 4.9c4.55 5.11.79 16.3-.14 19.37-.27.88-.31 1.1.14.32 2.3-3.8 11.1-18.51-2.1-41.15 0-.09-.09-.18-.14-.27-.2 2.6-2.51 5.52-6.51 9.67z" fill="#ba8448"/><path d="m124.75 52a48.27 48.27 0 0 1 14.55 3.26c-3.3-11.67-11.72-24.26-38.87-24.56-17.43-.06-28.69 5.71-33.43 13.13a12.08 12.08 0 0 0 -1.27 2.75h.07c11.31-7.34 42.68-7.85 58.95 5.42z" fill="#ba8448"/><path d="m94.73 52.27a4.33 4.33 0 0 0 .86.24 18.7 18.7 0 0 0 4.66.59 12.5 12.5 0 0 0 2.17-.13 106.17 106.17 0 0 1 15.89-1.25c2.34 0 4.49.1 6.44.27-16.27-13.26-47.64-12.75-59-5.45h-.07l-.85.61-.27.2-.19.15c-.37.65-.76 1.3-1.18 1.94 19.45-1.89 28.48 1.63 31.54 2.83z" fill="#e3ac5e"/><path d="m94.71 73.7a3.92 3.92 0 0 0 -1.42 3 1.74 1.74 0 0 0 .29 1.06 1.25 1.25 0 0 0 .81.51c.59.13.85-1.11 2.1-.85a.79.79 0 0 1 .67.45c.12.43 0 1 .11 1.41s.28.61.92.63c1.25 0 .4-2 2-2.36a1.14 1.14 0 0 1 .62 0c.48.21.66.77.91.92a.28.28 0 0 0 .38 0 2 2 0 0 0 .72-2 4.93 4.93 0 0 0 -1.23-2.61 1.92 1.92 0 0 0 -.71-.28h-.14-.15c-1.79-.38-5.11-.39-5.88.12z" fill="#f8a490"/><path d="m138.63 93.91v-1.8c0-.39-.07-.79-.13-1.18 0-.22-.09-.42-.13-.62l-.06-.31a9.63 9.63 0 0 0 -3.92-5.86 17.64 17.64 0 0 1 -6.28.94c-.39.45-.77 1-1.15 1.47a34.23 34.23 0 0 0 -2.17 3.22c-1.45 2.16-2.76 4.39-4 6.69s-2.49 4.6-3.61 6.89c-.28.58-.55 1.15-.81 1.73-.44 1.06-1 2.46-1.61 4.08a3.66 3.66 0 0 0 -.12.5v.1c0 .06 0 .06-.06.13a.15.15 0 0 1 -.11.12c0 .1-.07.19-.1.29s-.77.54-1.89.85c2.17.67 4.66 2.4 6.24 6.64 11.61-5.79 19.45-15.26 19.91-23.88z" fill="#f6e8d0"/><path d="m94.45 113.35c-5 0-9.38-.66-11.09-2.5a1 1 0 0 1 -.16-.68 6.11 6.11 0 0 1 -.37-.68l-.08-.16c-.06-.14-.13-.29-.19-.45s-.16-.4-.23-.61v-.1c0-.16-.11-.32-.16-.48s-.09-.29-.14-.44 0-.09 0-.14c-.08-.27-.17-.55-.25-.84l-.74-2.36a42.19 42.19 0 0 0 -2.36-6.17 17.07 17.07 0 0 0 -3.81-5.19 11.73 11.73 0 0 0 -5.51-2.69 1.28 1.28 0 0 1 -.87-1v-.36a1.57 1.57 0 0 1 .08-.31 1.35 1.35 0 0 1 1.43-.86v-.33l.87.53a68.12 68.12 0 0 0 13.61 1.47 111.29 111.29 0 0 0 14.77-.78 139.28 139.28 0 0 0 14.58-2.56c1.86-.44 3.73-.91 5.59-1.41-5.34-.85-10.11-2.1-11.4-2.36a1 1 0 0 1 -.33-.15c-3.45.4-7 .91-10.74 1.47-15.68 2.38-26.87.38-30.84 4.28-1.4 1.37-1.91 3.46-1.39 6.75 1.7 11 13.69 26.66 30.67 28.52a41.29 41.29 0 0 1 3-5.62 15.83 15.83 0 0 1 5-4.39 81.41 81.41 0 0 1 -8.94.6z" fill="#f6e8d0"/><path d="m81.94 107.1v.14s0-.11 0-.16z" fill="#d7cab2"/><path d="m82.28 108.16c0-.15-.11-.32-.16-.48.05.16.11.32.16.48z" fill="#d7cab2"/><path d="m69.7 88.71 1.13.24c-.34-.14-.69-.28-1.06-.41 19.15 4.59 41.84-.57 53-3.79-1.11-.13-2.22-.28-3.31-.45-1.86.5-3.73 1-5.59 1.41a139.28 139.28 0 0 1 -14.58 2.56 111.29 111.29 0 0 1 -14.81.73 68.12 68.12 0 0 1 -13.57-1.5l-.91-.5-.09.32a1.35 1.35 0 0 0 -1.48.86 1.57 1.57 0 0 0 -.08.31v.29a1.28 1.28 0 0 0 .87 1 11.73 11.73 0 0 1 5.51 2.69 17.07 17.07 0 0 1 3.81 5.19 42.19 42.19 0 0 1 2.36 6.17l.74 2.36c-1.64-5.73-3.58-14.76-11.94-17.48z" fill="#d7cab2"/><path d="m82.32 108.26c.07.21.15.41.23.61-.08-.19-.16-.4-.23-.61z" fill="#d7cab2"/><path d="m114.44 110a.15.15 0 0 0 .11-.12c.06-.07.06-.07.06-.13v-.1a3.66 3.66 0 0 1 .12-.5c-.09.3-.19.59-.29.85z" fill="#d7cab2"/><path d="m82.74 109.32.08.16z" fill="#d7cab2"/><path d="m126.78 85.05a132.17 132.17 0 0 0 -10 18.23.62.62 0 0 1 .1.48c-.13.34-.32.79-.54 1.32.26-.58.53-1.15.81-1.73 1.12-2.29 2.37-4.59 3.61-6.89s2.56-4.53 4-6.69a34.23 34.23 0 0 1 2.24-3.22c.38-.51.76-1 1.15-1.47z" fill="#d7cab2"/><path d="m126.78 85.05c-1.32 0-2.69-.16-4-.31-11.12 3.22-33.81 8.38-53 3.79.37.13.72.27 1.06.41l-1.14-.24c8.36 2.72 10.29 11.75 12 17.53.08.29.17.57.25.84v.16s.09.3.14.44.11.33.16.48v.1c.07.21.15.42.23.61s.13.31.19.45l.08.16a6.11 6.11 0 0 0 .37.68c0-1.25 1.09-3.74 3.15-6.21a16.3 16.3 0 0 1 4.31-3.9c-.37-1.24-.77-2.69-1.16-4.06 0-.17-.09-.34-.13-.51a24.53 24.53 0 0 0 -1.29-4.05 29.89 29.89 0 0 0 4.25 0c3.1-.14 7-.52 10.12-.95a22.4 22.4 0 0 0 5.1-1.22c0 .66.06 1.12.1 1.6v.39c.09 1.15.15 2.32.19 3.42v3.44a27.36 27.36 0 0 1 4.38 1.65h.06l.31.16.42.21h.06a10 10 0 0 1 3.86 3.07 132.17 132.17 0 0 1 9.93-18.14z" fill="#333"/><path d="m113.55 109.8c.73-2.1 1.51-3.94 2-5.18 0-.11.07-.21.11-.31l.47.32c1-1.31-.55-3-3.23-4.42h-.06l-.42-.21-.31-.16h-.06a27.36 27.36 0 0 0 -4.38-1.65 5.94 5.94 0 0 1 -.36 2.18c-.59.92-4.07 3.08-5.25 3.67a.38.38 0 0 1 -.26.07c-.53 0-.79-.72-1.38-1a.22.22 0 0 0 -.13-.12l-.29.01c-.33.35-.47 1.37-1 1.58a.48.48 0 0 1 -.33.07 47.66 47.66 0 0 1 -6.67-1.45.2.2 0 0 1 -.11-.07 9.92 9.92 0 0 1 -1.22-3.07 16.3 16.3 0 0 0 -4.31 3.9 15.33 15.33 0 0 0 -2.79 6.14v.36c.09.2.4.21.91.06 1.61 1.18 5.1 1.84 10 1.84a82.89 82.89 0 0 0 11.72-.91h.12.14a11.14 11.14 0 0 1 3.47-.59 16.68 16.68 0 0 0 3.62-1.06z" fill="#fdd5c4"/><path d="m114.34 110.33c0-.1.07-.19.1-.29.1-.3.2-.59.31-.88.58-1.62 1.17-3 1.61-4.08.22-.53.41-1 .54-1.32a.62.62 0 0 0 -.1-.48 10 10 0 0 0 -3.86-3.07c2.68 1.45 4.21 3.11 3.23 4.42l-.47-.32c0 .1-.07.2-.11.31-.53 1.24-1.31 3.08-2 5.18a16.68 16.68 0 0 1 -3.64 1 9 9 0 0 1 2.54.37c1.08-.3 1.77-.6 1.85-.84z" fill="#f8a490"/><path d="m112.88 100.18-.42-.21z" fill="#f8a490"/><path d="m112.15 99.81h-.06z" fill="#f8a490"/><path d="m84.47 110.52c-.51.15-.82.14-.91-.06v-.36a15.33 15.33 0 0 1 2.79-6.1c-2.06 2.47-3.11 5-3.15 6.21a1 1 0 0 0 .16.68c1.71 1.84 6.1 2.5 11.09 2.5a81.41 81.41 0 0 0 9-.56 21.72 21.72 0 0 1 2.73-1.34 82.89 82.89 0 0 1 -11.72.91c-4.89-.04-8.38-.7-9.99-1.88z" fill="#f8a490"/><path d="m88.45 92.53a9.07 9.07 0 0 0 -.45-1 14.93 14.93 0 0 0 1.9.07c.69 0 1.47 0 2.31-.06a29.89 29.89 0 0 1 -4.25 0 24.53 24.53 0 0 1 1.41 4.09c-.3-1.13-.63-2.18-.89-2.93z" fill="#fff7e4"/><path d="m89.76 95.21c.17.58.34 1.2.52 1.82.66 2.24 1.51 5.32 1.91 5.78a3.86 3.86 0 0 1 .59.13 44.3 44.3 0 0 0 5.84 1.25h.2c.19-.07.33-.46.46-.72a3.29 3.29 0 0 1 .33-.68l-.46-2.13-.59-2.43c-.2-.79-.39-1.58-.59-2.37s-.45-1.51-.7-2.21v-.1l.33-.16h.05c.33.78.65 1.5.91 2.28s.53 1.57.79 2.36l.72 2.36.67 2.2h.05a6.47 6.47 0 0 1 .65.59c.13.2.33.4.46.4h.1c1.44-.72 4.59-2.76 5-3.55s.39-4.48.12-8.43c-2.89-.14-15.41.87-17.36 3.61z" fill="#fff7e4"/><path d="m89.5 95.93v.07c.39 1.37.79 2.82 1.16 4.06a9.92 9.92 0 0 0 1.22 3.07c-.56-.55-1.49-4.13-2.38-7.2z" fill="#fff7e4"/><path d="m107.71 94.7c0-1.1-.1-2.27-.19-3.42v.37a2 2 0 0 0 -.38 0c.27 3.95.23 7.74-.12 8.43s-3.61 2.83-5 3.55h-.07c-.13 0-.33-.2-.46-.4a6.47 6.47 0 0 0 -.65-.59h-.05l-.67-2.2-.77-2.44c-.26-.79-.53-1.57-.79-2.36s-.58-1.5-.91-2.28h-.05l-.33.16v.1c.25.7.45 1.46.7 2.21s.39 1.58.59 2.37l.59 2.43.46 2.13a3.29 3.29 0 0 0 -.33.68c-.13.26-.27.65-.46.72h-.2a44.3 44.3 0 0 1 -5.84-1.25 3.86 3.86 0 0 0 -.59-.13c-.4-.46-1.25-3.54-1.91-5.78-.18-.62-.35-1.24-.52-1.82a1.27 1.27 0 0 0 -.26.72c.89 3.1 1.82 6.65 2.38 7.2a.2.2 0 0 0 .11.07 47.66 47.66 0 0 0 6.63 1.45.48.48 0 0 0 .33-.07c.54-.21.68-1.23 1-1.58l.37-.11a.22.22 0 0 1 .13.12c.59.33.85 1 1.38 1a.38.38 0 0 0 .26-.07c1.18-.59 4.66-2.75 5.25-3.67a5.94 5.94 0 0 0 .36-2.18v-3.36z" fill="#ffdc99"/><path d="m89.89 91.52a14.93 14.93 0 0 1 -1.9-.07 9.07 9.07 0 0 1 .45 1c-.18-.49-.32-.84-.39-1 1.37.41 8.9-.16 14.27-1-3.12.43-7 .81-10.12.95-.84.1-1.62.12-2.31.12z" fill="#ffdc99"/><path d="m89.76 95.21c1.95-2.74 14.47-3.75 17.38-3.59a2 2 0 0 1 .38 0v-.76c0-.48-.1-.94-.1-1.6a22.4 22.4 0 0 1 -5.1 1.22c-5.37.85-12.9 1.42-14.27 1 .07.14.21.49.39 1 .26.75.59 1.8.89 2.93 0 .17.09.34.13.51v-.09a1.27 1.27 0 0 1 .3-.62z" fill="#eadcbe"/><path d="m55.38 72c.28 2.82.95 5.58 3.62 7.43a18.16 18.16 0 0 0 7.11 8.11c4-3.9 15.16-1.9 30.84-4.28 3.69-.56 7.29-1.07 10.74-1.47a1 1 0 0 0 .33.15c1.29.26 6.06 1.51 11.4 2.36 1.09.17 2.2.32 3.31.45 1.36.15 2.73.26 4 .31h1.33a17.64 17.64 0 0 0 6.28-.94 5.81 5.81 0 0 0 2.05-1.3c4-4.15 6.31-7.07 6.51-9.67a.28.28 0 0 0 0-.09v-.54a4.37 4.37 0 0 0 -.19-1.07c-1.93 3.81-4.21 8.19-6 10.3-3.48 4-23.57 1.45-27.25-2.1a4.35 4.35 0 0 1 -.41-.44c-3.51-4-3.74-14.74-6.85-18.58a4.29 4.29 0 0 0 -.68-.67 1.33 1.33 0 0 0 -.56-.23 10.29 10.29 0 0 0 -2-.15c-.79 0-1.64.07-2 .07-1 0-1.88 2.67-3.12 6.08-1.55 4.34-3.69 9.86-7.47 12.54l-.1.07c-.92.66-7.42 2.3-14 2.3-4.33 0-8.66-.72-11.29-3s-4.39-5.36-5.78-8.64v.72c.05.73.1 1.5.18 2.28zm45.18 1.57h.15.14a1.92 1.92 0 0 1 .71.28 4.93 4.93 0 0 1 1.23 2.61 2 2 0 0 1 -.72 2 .28.28 0 0 1 -.38 0c-.25-.15-.43-.71-.91-.92a1.14 1.14 0 0 0 -.62 0c-1.57.33-.72 2.36-2 2.36-.64 0-.85-.28-.92-.63s0-1-.11-1.41a.79.79 0 0 0 -.67-.45c-1.25-.26-1.51 1-2.1.85a1.25 1.25 0 0 1 -.81-.51 1.74 1.74 0 0 1 -.29-1.06 3.92 3.92 0 0 1 1.42-3c.8-.5 4.12-.49 5.88-.13z" fill="#e3ac5e"/><path d="m151 61.83c-.79 1.25-3.42 1.84-4.6 2.76s-6.3 13.13-9.78 17.13c-1.25 1.45-4.66 2-8.66 2-7.09 0-16.15-1.91-18.52-4.14-.12-.12-.25-.25-.37-.39a4.35 4.35 0 0 0 .41.44c3.68 3.55 23.77 6.11 27.25 2.1 1.83-2.11 4.11-6.49 6-10.3.26-.5.5-1 .74-1.47v-.06c1.38-2.74 2.48-4.92 3-5.29 1.18-.85 3.8-1.51 4.59-2.76s.2-6-1.42-6.29c1.56.62 2.03 5.17 1.36 6.27z" fill="#333"/><path d="m49.71 49.62c1.25 0 3.94.72 6.23.72a7.91 7.91 0 0 0 1.19-.06 112.07 112.07 0 0 1 16.8-1.28c12.27 0 18.46 2.5 20.8 3.3-3.06-1.2-12.09-4.72-31.54-2.79-1.89.19-3.87.42-6 .72-2.62.39-6.3-.79-7.61-.66a.77.77 0 0 0 -.46.24.8.8 0 0 1 .35-.16z" fill="#333"/><path d="m93.85 65.75c-1.56 4.31-3.71 9.8-7.48 12.55 3.79-2.69 5.93-8.21 7.48-12.55z" fill="#333"/><path d="m102.22 60.65a4.45 4.45 0 0 0 -.72-.72 1.36 1.36 0 0 0 -.52-.18 1.33 1.33 0 0 1 .56.23 4.29 4.29 0 0 1 .68.67z" fill="#333"/><path d="m50.59 55.88a4.19 4.19 0 0 1 -2.48-2.11 3.46 3.46 0 0 0 .22 1.17c.53 1.12 3.28 2 3.61 3.28.12.48.52 2.51 1.29 5.15-.98-4-.98-6.81-2.64-7.49z" fill="#1a1a1a"/><path d="m141.74 56.25a6.31 6.31 0 0 1 -.74-.25c-.43-.18-1-.43-1.69-.71a48.27 48.27 0 0 0 -14.56-3.29c-2-.17-4.1-.27-6.44-.27a106.17 106.17 0 0 0 -15.89 1.27 12.5 12.5 0 0 1 -2.17.13 18.7 18.7 0 0 1 -4.66-.59 4.33 4.33 0 0 1 -.86-.24c-2.34-.8-8.53-3.3-20.8-3.3a112.07 112.07 0 0 0 -16.8 1.31 7.91 7.91 0 0 1 -1.19.06c-2.29 0-5-.72-6.23-.72h-.2a.8.8 0 0 0 -.35.16 4.53 4.53 0 0 0 -1 2.88c.28-.23.78.14 1.34.53a6.7 6.7 0 0 1 .5-2.35 12.33 12.33 0 0 1 1.84.26 31.34 31.34 0 0 0 3.76.44 29.86 29.86 0 0 1 -5.82-1.76h.1c.59.19 4.92.52 6.43.59 1.17 0 5.12-.61 6.36-.76h.33-.08c-1.07.31-4.23 1.64-6.29 1.87a3 3 0 0 0 .83-.12 137.58 137.58 0 0 1 16.48-1.18c9.74 0 15.59 1.59 18.62 2.66.59.13 2 .73 3.52 1.19a20.66 20.66 0 0 0 4.18.48h.33l1.64-.12.4-.07a108.34 108.34 0 0 1 13-1.2c.77-.08 1.5-.14 2.13-.19h4a52.85 52.85 0 0 1 6 .75 43.09 43.09 0 0 1 12.35 3.4c.59.26 1 .4 1.31.53a6 6 0 0 0 1.91.26 23.18 23.18 0 0 0 4.33-.59c.59-.13 1.18-.26 1.64-.33a7.37 7.37 0 0 1 .74 4c.34 0 .57.05.6.18.07.34-1 .68-2.2 1.14-.22.11-.45.21-.65.29l-.26.11a4.07 4.07 0 0 0 -1.29.89c-1 1.31-7.94 16.35-10.11 17.66-.94.57-4.49 1.3-8.87 1.48h-3.91c-4.8-.2-9.94-1.19-13.54-3.71-3.88-2.76-5.39-19.1-8.47-20a8.4 8.4 0 0 0 -4.92-.13c-1.91 1.24-4.6 15.16-10.31 18.64-2.31 1.39-20.11 4.87-25.41-.71a29.79 29.79 0 0 1 -5.56-8l.06.14c1.39 3.31 3.29 6.63 5.8 8.75s7 3 11.29 3c6.56 0 13.06-1.64 14-2.3l.1-.07c3.77-2.75 5.92-8.24 7.48-12.55 1.22-3.45 2.13-6.12 3.13-6.12.33 0 1.18-.07 2-.07a10.29 10.29 0 0 1 2 .15 1.36 1.36 0 0 1 .52.18 4.45 4.45 0 0 1 .72.72c3.11 3.84 3.34 14.55 6.85 18.58.12.14.25.27.37.39 2.37 2.23 11.43 4.14 18.52 4.14 4 0 7.41-.59 8.66-2 3.48-4 8.6-16.21 9.78-17.13s3.81-1.51 4.6-2.76.2-5.65-1.32-6.24a.88.88 0 0 0 -.33-.06h-.13a52.38 52.38 0 0 1 -5.63.91h-.34a5.62 5.62 0 0 1 -1.53-.23zm1.26 1.68c-1 .11-3.93-2.15-4.1-2.48h.14a21.63 21.63 0 0 0 4.29 1.23 16.38 16.38 0 0 0 3.63-.5c-.86.37-2.83 1.62-3.96 1.75z" fill="#1a1a1a"/><g fill="#fff"><path d="m61 56.85a7.55 7.55 0 0 0 -1.54 1.34 11.56 11.56 0 0 1 1.54-1.34z"/><path d="m61.11 56.77a.1.1 0 0 0 0 0 .1.1 0 0 1 0 0z"/><path d="m67.47 54.9c6.63-.7 16.58.15 22.31 3.69-2.61-2.23-13-4.79-22.31-3.69z"/><path d="m59.17 58.88a2.69 2.69 0 0 0 -.05.32c0 .32-.07.69-.1 1.09a29.06 29.06 0 0 0 .23 5.06 42.68 42.68 0 0 1 -.08-6.47z"/><path d="m84.48 72.7c4.47-5.52 5-11.56 4.34-12.93-1-2.17-8.14-4.27-17.14-4-11.22.33-11.75 4.92-12.21 10.57a2.24 2.24 0 0 1 -.17-.66 20.16 20.16 0 0 0 1.1 4.32 14.47 14.47 0 0 1 -.64-3.4.7.7 0 0 1 0 .13c1.71 11 21.86 7.68 23 7.22 0 .07-.15.16-.4.28a4.55 4.55 0 0 0 .54-.23 8.44 8.44 0 0 0 2.1-1.83 5.25 5.25 0 0 1 -.52.53zm-9.59-7.27c-.33 2.57-1.64 4.46-2.89 4.26s-1.9-2.36-1.57-4.92 1.64-4.46 2.89-4.27 1.9 2.37 1.57 4.93z"/><path d="m108.89 60.11c-1.37 1.44 1.38 12.89 5.32 15.89a7.83 7.83 0 0 0 1.86.86 4.14 4.14 0 0 1 -1.6-.9c1.2.62 20.74 6.34 23.75-4.33.12-.37.09 0-.1.73.19-.51.35-1 .5-1.54.24-5.49-.06-9.83-10.78-11.49-8.87-1.37-16.22-.19-17.53 1.84-.79 1.25-1 7.32 2.72 13.34-2.55-3-5.85-13.48-3.7-14.52 4.46-2.14 11.08-2.52 16.89-2-7.99-.82-15.7.45-17.33 2.12zm13.92 8.67c-.26-2.57.53-4.73 1.71-4.86a1.6 1.6 0 0 1 1.24.66.67.67 0 0 0 -.66.66.62.62 0 0 0 .66.66.71.71 0 0 0 .6-.43 8.84 8.84 0 0 1 .86 2.86c.26 2.56-.53 4.72-1.71 4.85s-2.44-1.84-2.7-4.4z"/><path d="m131.44 78.92a9.78 9.78 0 0 0 1.55-.26c-.52.1-.99.19-1.55.26z"/></g><path d="m70.43 64.77c-.33 2.56.33 4.73 1.57 4.92s2.56-1.7 2.89-4.26-.33-4.73-1.57-4.93-2.56 1.71-2.89 4.27zm4.07-2.87v.52a.64.64 0 0 1 -.61.38.66.66 0 1 1 0-1.31.66.66 0 0 1 .61.41z" fill="#010101"/><path d="m125.5 73.17c1.18-.13 2-2.29 1.71-4.85a8.84 8.84 0 0 0 -.86-2.86.71.71 0 0 1 -.6.43.62.62 0 0 1 -.66-.66.67.67 0 0 1 .66-.66 1.6 1.6 0 0 0 -1.24-.66c-1.18.13-2 2.29-1.71 4.86s1.45 4.53 2.7 4.4z" fill="#010101"/><path d="m60.7 76.82c5.31 5.58 23.1 2.1 25.4.72 5.71-3.48 8.4-17.4 10.31-18.64a8.4 8.4 0 0 1 4.92.13c3.08.92 4.59 17.26 8.47 20 3.6 2.52 8.74 3.51 13.54 3.71h3.91c4.38-.18 7.93-.91 8.87-1.48 2.17-1.31 9.06-16.35 10.11-17.66a4.07 4.07 0 0 1 1.29-.89l.26-.11c.2-.08.43-.18.65-.29 1.16-.46 2.27-.8 2.2-1.14 0-.13-.26-.18-.6-.18a7.37 7.37 0 0 0 -.74-4c-.46.07-1 .2-1.64.33a23.18 23.18 0 0 1 -4.33.59 6 6 0 0 1 -1.91-.26c-.33-.13-.72-.27-1.31-.53a43.09 43.09 0 0 0 -12.35-3.4c4.66.85 9 2.29 10 4.07-9.39-3.15-22.83-4.33-29.26.79-2.23 1.77-2.43-2.95-2-3.41.9-1 5.52-1.66 9.14-2a108.34 108.34 0 0 0 -13 1.2l-.4.07-1.64.12h-.33a20.66 20.66 0 0 1 -4.18-.48c-1.54-.46-2.93-1.06-3.52-1.19-3-1.07-8.88-2.66-18.62-2.66a137.58 137.58 0 0 0 -16.48 1.18 3 3 0 0 1 -.83.12c2.06-.23 5.22-1.56 6.29-1.87h.08-.35c-1.24.15-5.19.81-6.36.76-1.51-.07-5.84-.4-6.43-.59h-.1a29.86 29.86 0 0 0 5.82 1.76 31.34 31.34 0 0 1 -3.76-.44 12.33 12.33 0 0 0 -1.82-.28 6.7 6.7 0 0 0 -.49 2.32c-.56-.39-1.06-.76-1.34-.53v1.08a4.19 4.19 0 0 0 2.48 2.11c1.66.68 1.66 3.49 2.64 7.49a29.41 29.41 0 0 0 1.91 5.46 29.79 29.79 0 0 0 5.5 8.02zm84.63-17.82c0 .2-1.05.33-2.3.33s-2.3-.13-2.3-.33 1.05-.32 2.3-.32a4.9 4.9 0 0 1 2.3.32zm-55.55-.4.22.13a1.17 1.17 0 0 1 .45.9v.85c-.28 3.1-3.19 9.2-5.45 11.7a8.44 8.44 0 0 1 -2.1 1.82 4.55 4.55 0 0 1 -.48.21c-2 .89-11.15 2.88-19-.15-1.6-.59-2.53-2.39-3.06-4.08a20.16 20.16 0 0 1 -1.1-4.34c0-.1 0-.21 0-.32a29.06 29.06 0 0 1 -.26-5.03c0-.4.06-.77.1-1.09a2.69 2.69 0 0 1 .05-.32c0-.16 0-.31 0-.43l.25-.26a7.55 7.55 0 0 1 1.6-1.34l.11-.08a.1.1 0 0 0 0 0 7.12 7.12 0 0 1 1.66-.9 20.52 20.52 0 0 1 4.65-.93c9.36-1.14 19.75 1.42 22.36 3.65zm36.43-.6a32 32 0 0 1 10.42 2.43 9.45 9.45 0 0 1 3.25 3v.59c-.16 1.92-.75 6.56-1.28 7.21 0-.15 0-.31 0-.46-.15.51-.31 1-.5 1.54-.45 1.74-1.83 5.51-4.42 6.16l-.71.16a9.78 9.78 0 0 1 -1.55.26 32.41 32.41 0 0 1 -15.37-2.06 7.83 7.83 0 0 1 -1.86-.86c-3.94-3-6.69-14.45-5.32-15.89 1.65-1.64 9.36-2.91 17.34-2.08zm-35.94-5c1.49.4 2.27 2.52 2.28 3.55v.11c0 .44-.21.63-.58.28-5.58-5.18-16.87-5.25-37.28-2.62-2.1.26-3.09.06-4.66-1.71.9 0 1.69.07 2.42.14-.05 0-.09-.09-.07-.12.06-.2 1-.2 2.29 0a6.66 6.66 0 0 1 1.73.37 12.61 12.61 0 0 0 1.6-.13 80.54 80.54 0 0 1 13.89-1.95h4.35a64 64 0 0 1 14.03 2.08z" fill="#333"/><path d="m147 56.22a16.38 16.38 0 0 1 -3.63.5 21.63 21.63 0 0 1 -4.29-1.23h-.14c.17.33 3.12 2.59 4.1 2.48s3.06-1.42 3.96-1.75z" fill="#333"/><path d="m67.47 54.9a20.52 20.52 0 0 0 -4.65.93 7.12 7.12 0 0 0 -1.66.9.1.1 0 0 1 0 0l-.11.08a11.56 11.56 0 0 0 -1.54 1.34l-.25.26v.43a42.68 42.68 0 0 0 .08 6.47v.32a2.24 2.24 0 0 0 .17.66c.46-5.65 1-10.24 12.21-10.57 9-.26 16.15 1.84 17.14 4 .65 1.37.13 7.41-4.34 12.93a5.25 5.25 0 0 0 .52-.53c2.26-2.5 5.17-8.6 5.45-11.7v-.85a1.17 1.17 0 0 0 -.45-.9l-.22-.13c-5.77-3.49-15.72-4.34-22.35-3.64z" fill="#d0dddc"/><path d="m82.82 74c-1.18.46-21.33 3.81-23-7.22a.7.7 0 0 0 0-.13 14.47 14.47 0 0 0 .58 3.35c.53 1.69 1.46 3.49 3.06 4.08 7.81 3 17 1 19 .15.21-.11.36-.23.36-.23z" fill="#d0dddc"/><path d="m109.32 60c-2.15 1 1.15 11.49 3.7 14.52-3.77-6-3.51-12.09-2.72-13.34 1.31-2 8.66-3.21 17.53-1.84 10.72 1.66 11 6 10.78 11.49v.46c.53-.65 1.12-5.29 1.28-7.21v-.59a9.45 9.45 0 0 0 -3.25-3 32 32 0 0 0 -10.43-2.49c-5.81-.55-12.43-.17-16.89 2z" fill="#d0dddc"/><path d="m138.22 71.61c-3 10.67-22.55 5-23.75 4.33a4.14 4.14 0 0 0 1.6.9 32.41 32.41 0 0 0 15.37 2.06c.52-.07 1-.16 1.55-.26l.71-.16c2.59-.65 4-4.42 4.42-6.16.19-.71.22-1.08.1-.71z" fill="#d0dddc"/><path d="m73.23 62.15a.62.62 0 0 0 .66.65.64.64 0 0 0 .61-.38v-.52a.66.66 0 0 0 -.61-.41.62.62 0 0 0 -.66.66z" fill="#fff"/><path d="m71.86 50.92a80.54 80.54 0 0 0 -13.86 1.95 12.61 12.61 0 0 1 -1.6.13 6.66 6.66 0 0 0 -1.73-.37c-1.24-.2-2.23-.2-2.29 0 0 0 0 .07.07.12-.73-.07-1.52-.12-2.42-.14 1.57 1.77 2.56 2 4.66 1.71 20.41-2.63 31.7-2.56 37.31 2.62.37.35.55.16.58-.28v-.11c0-1-.79-3.15-2.28-3.55a64 64 0 0 0 -14.06-2.08z" fill="#d0dddc"/><path d="m106.48 55.24c-.46.46-.26 5.18 2 3.41 6.43-5.12 19.87-3.94 29.26-.79-.94-1.78-5.3-3.22-10-4.07a52.85 52.85 0 0 0 -6-.75h-4c-.63 0-1.36.11-2.13.19-3.61.35-8.23 1.06-9.13 2.01z" fill="#d0dddc"/><ellipse cx="143.03" cy="58.99" fill="#d0dddc" rx="2.3" ry=".33"/><path d="m184 158.53a6 6 0 0 0 -6-5.77 6.28 6.28 0 0 0 -2.62.52l-.53.26-.46.33a12.13 12.13 0 0 1 -2.76 1.51 13.87 13.87 0 0 1 .13-2.76v-.13c.73-7-.72-11.16-4.39-12.21a6.3 6.3 0 0 0 -1.91-.26 9.51 9.51 0 0 0 -5.45 2 4.56 4.56 0 0 0 -.85-.85 47.12 47.12 0 0 0 2.28-5.37c3.94-.37 8.43-1.88 10.5-4.77a6.08 6.08 0 0 0 1-5.38 5.51 5.51 0 0 0 -2.49-3.28 6.27 6.27 0 0 0 -1.05-7 5.76 5.76 0 0 0 -4.21-1.84 6.12 6.12 0 0 0 -2.75.72 5.7 5.7 0 0 0 -5-4.07h-.72a5.75 5.75 0 0 0 -3.9 1.38 33.15 33.15 0 0 0 1.08-6.56c1.49-7.66 1-17.63-4.77-29.41-.44-1.38-.91-2.8-1.42-4.25.66-1.27 1.33-2.59 1.75-3.33a3.39 3.39 0 0 1 .66-.33 10 10 0 0 0 4.66-3.41c1.77-2.76.92-7.55-.33-9.85a7.16 7.16 0 0 0 -.9-1.24l.11-.13c4.93-5.78 8.27-12.08 9.06-17.4 1.12-7.22-2.17-12.93-8.93-15.62a6.08 6.08 0 0 0 -2.43-.46 6.46 6.46 0 0 0 -1 .07h-.13c-4.73 0-8.67 2.83-12.93 5.91-3.43 2.48-6.94 5-10.95 6.19-5.81-2.91-13.92-4.93-25.35-5.27-1.25-.06-2.37-.06-3.42-.06h-.06c-6.61 0-13.76.71-20.49 3.8h-2.2a17.29 17.29 0 0 1 -5.45-.72 48.35 48.35 0 0 0 -16.15-3.35 19.4 19.4 0 0 0 -10.86 2.96 12.44 12.44 0 0 0 -5.16 4.75c-1.51 2.37-2.69 6.44 0 12.41a32.22 32.22 0 0 0 6.79 9.41 5.66 5.66 0 0 0 .41 1.16 8.26 8.26 0 0 0 3.15 3.08l.33.2a64.31 64.31 0 0 0 3.24 10.39c-1 2-2.41 4.19-3.81 6.48-3.61 5.91-7.75 12.54-9.32 20-1.84 9 .59 17.33 7.35 24.61a29.8 29.8 0 0 0 4.47 3.81 53 53 0 0 0 5.09 3.27c-.64 1.2-1.24 2.48-1.88 3.88q-1.28 3-2.16 5.52c-.33.92-.66 1.84-.92 2.82-.13.46-.27 1-.4 1.45l-.12.44a12.94 12.94 0 0 0 -8.12-2.46h-.46c-2.82.07-9.78 1.25-14.11 10.9a32.31 32.31 0 0 0 -1.58 4.46 5.39 5.39 0 0 0 -2.43-.52 5.67 5.67 0 0 0 -4.73 2.45c-.65 1-2.75 4.4-1.7 7.81a6.1 6.1 0 0 0 3.7 3.94c1.65.66 3.68 1.25 5.19 1.71a17.15 17.15 0 0 0 5.62 6.93 12.76 12.76 0 0 0 8 2.43 29.4 29.4 0 0 0 11.1-2.56l.19-.13.07-.07a7.66 7.66 0 0 0 4.07 2.17 8.3 8.3 0 0 0 2 .2c2.89 0 4.92-1.51 6.83-4.27 1.51 2.43 4.33 3.74 7.61 3.74.2 0 .33.13.59.13 1.71 0 3.94-.59 5.71-3.54a8.41 8.41 0 0 0 7.55 4.27 13.84 13.84 0 0 0 5.91-1.45l.13-.06c1-.53 1.77-1 2.43-1.32a20 20 0 0 0 9.52 2.43 11.4 11.4 0 0 0 2.1-.13h.38a76.89 76.89 0 0 0 17.46-5.32 16.43 16.43 0 0 0 11.27 5.48 17.54 17.54 0 0 0 1.78.06 22.41 22.41 0 0 0 10.37-2.56 8.61 8.61 0 0 0 3.15 2.17 6.35 6.35 0 0 0 2.43.46c5.31 0 7.81-6.3 8.46-8.47l1.25-3.41a9.69 9.69 0 0 0 4.4 2.69 12.68 12.68 0 0 0 3.15.46c5.84 0 11.49-4.14 12.34-4.86a10 10 0 0 0 2.94-8.01zm-143-122.31a8.14 8.14 0 0 1 3.2-3.06c5.9-4.49 15.77-2.45 23.78.43a22.34 22.34 0 0 0 7.33.93 42.06 42.06 0 0 1 6.33-2.9 54.21 54.21 0 0 1 19.1-2.89 61 61 0 0 1 19 3.22 35.19 35.19 0 0 1 8 4c9.91-2.91 16.49-12.3 23-11.9a2.34 2.34 0 0 1 1.44.06c14.86 5.91.38 26.24-8.56 32.3a52.38 52.38 0 0 0 5.63-.91h.13a.88.88 0 0 1 .33.06c1.62.31 2.17 5.18 1.42 6.29s-3.41 1.91-4.59 2.76c-.48.37-1.58 2.55-3 5.29.31.91.61 1.83.91 2.75l.08.16.59 1a52.22 52.22 0 0 1 5.28 14 .83.83 0 0 0 0 .15l.09.49.09.41a42.73 42.73 0 0 1 .87 8.62 35.87 35.87 0 0 1 -4.66 17.35c-.05.12-.1.24-.14.37a6.86 6.86 0 0 1 -.46 1.25 9.33 9.33 0 0 1 -.72 1.18 17.65 17.65 0 0 1 -1.64 2.17 25.64 25.64 0 0 1 -3.86 3.72 51.82 51.82 0 0 1 4.19 7.26 7.73 7.73 0 0 0 5.1-3.8c-1.55-1.55-2.5-3.26-2.28-4.76.2-1.31 3.09 0 4.93-.19 2.62-.13 1.31-7.88 4.79-7.55 2.95.33.13 5.77 2.49 6.56s4.73-4.79 6.76-2.62c2.17 2.36-3.21 5.58-2.89 7.28s4.73-1.24 5.45 1.32-4.33 4.59-8.79 4.72a8.88 8.88 0 0 1 -1.76-.14q-.19.69-.51 1.56a41.28 41.28 0 0 1 -2.76 6.68h-.15c-3.24.06-5.85 1.62-6.81 4.06a6.19 6.19 0 0 0 -.39 1.18 11.22 11.22 0 0 0 -.88-1.57 10.06 10.06 0 0 0 -7-4.27 13 13 0 0 0 -1.75-.13h-.07a15.25 15.25 0 0 0 -8.2 2.36c-.07.07-.13.07-.2.13a25.21 25.21 0 0 0 -3.58 3.06h-7.76a15.21 15.21 0 0 0 -2.84-2.27l-.06-.07c-.14-.06-.2-.13-.27-.13.25-.44.5-.89.75-1.36a41.36 41.36 0 0 0 3.49-8.72c.18-.66.33-1.32.46-2a23.21 23.21 0 0 0 0-9.92 21.51 21.51 0 0 0 -.73-2.44c-1.58-4.24-4.07-6-6.24-6.64a9 9 0 0 0 -2.54-.37 11.14 11.14 0 0 0 -3.47.59h-.14-.12a21.72 21.72 0 0 0 -2.73 1.34 15.83 15.83 0 0 0 -5 4.39 41.29 41.29 0 0 0 -3 5.62 54.32 54.32 0 0 0 -3.64 11.11c-.12.58-.24 1.16-.34 1.77-.19 1.06-.35 2.16-.48 3.29s-.27 2.49-.4 3.76l-.06.51a4.92 4.92 0 0 0 -.41-.52 7.71 7.71 0 0 0 -3.72-2.24 6.67 6.67 0 0 0 -2-.26 8.56 8.56 0 0 0 -4.68 1.54 12.3 12.3 0 0 0 -1.73 1.47 5.84 5.84 0 0 0 -2.52-2.11 5.72 5.72 0 0 0 -2.1-.5h-.5a10.88 10.88 0 0 0 -7.15 2.82c.75-1.45 1.6-2.92 2.52-4.34h-.06a48.17 48.17 0 0 0 -2.51 4.28 6.27 6.27 0 0 0 -.89-1.16 6.47 6.47 0 0 0 -4.68-1.93h-1a8.37 8.37 0 0 0 -4.46 1.17 17.26 17.26 0 0 1 .56-1.72c.59-1.77 1.31-3.48 2-5.19s1.6-3.32 2.5-4.93a10.7 10.7 0 0 1 .41-1.07 59.71 59.71 0 0 1 -7.17-4 35.66 35.66 0 0 1 -4.4-3.34c-.33-.33-.72-.66-1-1s-.59-.72-.92-1.05c-.59-.72-1.18-1.44-1.71-2.16a25.29 25.29 0 0 1 -4.2-10.24 25 25 0 0 1 1-11 51.92 51.92 0 0 1 4.39-9.91c1.78-3.09 3.68-6.11 5.52-9.06q1.38-2.27 2.56-4.53c.38-1 .74-2 1.05-2.82v-.32l-.06-.14a29.41 29.41 0 0 1 -1.91-5.46c-.77-2.64-1.17-4.67-1.29-5.15-.33-1.31-3.08-2.16-3.61-3.28a3.46 3.46 0 0 1 -.22-1.17v-.18c-5.97-5.51-10.05-12.85-7.15-17.4zm137.44 126.17s-6.63 5.12-11.75 3.68-5.38-10.31-5.38-10.31h-.46l-5.19 13.85s-2.1 6.7-5.18 5.45-3-4.86-3-4.86a16.91 16.91 0 0 1 -13.65 4.92 12 12 0 0 1 -10.24-6.89s-5.19 3.88-19.7 6.76a15.73 15.73 0 0 1 -11.09-3.15 42.29 42.29 0 0 1 -4.47 2.63s-5.51 2.69-7.68-1.18-.72-15.76-.72-15.76h-.39a80 80 0 0 0 -4.86 12.08c-1.64 5.91-3.74 5.19-3.74 5.19s-3.74.32-4.66-2.89 1.38-15.1 1.38-15.1l-.33.07s-.2-.33-3.15 5.9c-5.08 12.15-6.26 12.74-9.18 12.22s-3-4.07-3-4.07l-3.93 2.37s-9.65 4.39-14.64.59a12.27 12.27 0 0 1 -4.86-7.09s-4.2-1-7-2.1.07-5.06.07-5.06.92-1.31 2.56 0 4.79.73 4.79.73a19.72 19.72 0 0 1 1.84-7.82c2.75-6.1 6.76-8.2 10.17-8.27s5.78.86 7.88 3.81c4.59 11.49-12.34 17.26-12.34 17.26s-.46 3 4.13 3 11.62-5.06 11.62-5.06a136 136 0 0 1 3.74-17.59c.73-1.84 3.55-1.51 3.55-1.51a2.11 2.11 0 0 1 2.67 1.81c.4 2.36-1.64 11.88-1.64 11.88l.33.39c.2-.91 5.06-9.12 5.06-9.12s2.82-4.86 7.09-4.66-.2 13.33-.2 13.33l.33.39.33-.59c.52-1.45 6.89-11.1 6.89-11.1s2.43-2.82 4.59-2.16 2.37 1.64 2.5 3.54-1.71 13-1.71 13-1.12 7.29 1.31 7.16 5-2.7 5-2.7 1.87-14.26 3.14-26.14a46.31 46.31 0 0 1 6.73-19.83s1.58-2.42 5.85-4.13c2.82-1 5.84-.33 7.28 5.77 2.42 10.27-5.83 22-9.2 26.25 1.48-1.46 4-3.1 6.84-1.37 10 6.31 1.84 20.16 1.84 20.16 2.89-.92 8.2-4.47 8.2-4.47s.13-1.57.2-1.9c1.84-10.24 7.94-14 9.12-14.84s11.75-4.92 12.21 6-13.19 14.7-13.19 14.7 1.18 3.15 6.24 2.36 10.76-5.71 10.76-5.71c.2-4.53 3.15-15.23 3.74-16.74s4.27-1.57 4.66-.72c.53 1.77.07 9.39.07 9.39l.38-.14a25 25 0 0 1 4.53-7.75s2.43-2.43 4.47-1.84 1.24 7.62 1.24 7.62-1.11 7.61 2.3 7.94 7.29-2.69 7.29-2.69a1.85 1.85 0 0 1 2.69 1.71c.37 2.68-1.08 3.4-1.08 3.4z" fill="#fff"/><path d="m42.82 150.57c-1.83-1.7-7 1.78-7.22 9.72 0 0 1.58.46 4.93-1.9s4.13-6.11 2.29-7.82z" fill="#fff"/><path d="m136.89 156.74c2.69-3.8.33-6.36.33-6.36s-2.1-2.69-4.86 2.29-2 7.62-2 7.62a7.92 7.92 0 0 0 6.53-3.55z" fill="#fff"/><path d="m108.4 152.61s-5.78-3.22-8.27 5-1.64 11.16-1.64 11.16 7.61 3.35 10.76-4.86-.85-11.3-.85-11.3z" fill="#fff"/><path d="m109.45 123.07c-1.18-6-5.91 6.37-5.91 6.37s-3.93 13.56-4.07 17.56c0 0 11.16-17.89 9.98-23.93z" fill="#fff"/><path d="m176.87 157.27s-3.88 3-7.29 2.69-2.3-7.94-2.3-7.94.73-7-1.24-7.62-4.47 1.84-4.47 1.84a25 25 0 0 0 -4.57 7.76l-.39.13s.46-7.62-.07-9.39c-.39-.85-4.07-.79-4.66.72s-3.54 12.21-3.74 16.74c0 0-5.78 4.86-10.76 5.71s-6.24-2.36-6.24-2.36 13.65-3.81 13.19-14.7-11-6.9-12.21-6-7.28 4.6-9.12 14.84c-.07.33-.2 1.9-.2 1.9s-5.31 3.55-8.2 4.47c0 0 8.2-13.85-1.84-20.16-2.85-1.73-5.36-.09-6.84 1.37 3.37-4.25 11.62-16 9.2-26.25-1.44-6.1-4.46-6.76-7.28-5.77-4.27 1.71-5.85 4.13-5.85 4.13a46.31 46.31 0 0 0 -6.76 19.83c-1.24 11.88-3.15 26.12-3.15 26.12s-2.62 2.56-5 2.7-1.31-7.16-1.31-7.16 1.84-11.09 1.71-13-.27-2.89-2.5-3.54-4.59 2.16-4.59 2.16-6.37 9.65-6.89 11.1l-.33.59-.33-.39s4.46-13.13.2-13.33-7.04 4.67-7.04 4.67-4.86 8.21-5.06 9.12l-.33-.39s2-9.52 1.64-11.88a2.11 2.11 0 0 0 -2.62-1.84s-2.82-.33-3.55 1.51a136 136 0 0 0 -3.74 17.59s-7 5.06-11.62 5.06-4.13-3-4.13-3 16.93-5.77 12.34-17.26c-2.1-3-4.46-3.87-7.88-3.81s-7.42 2.17-10.17 8.27a19.72 19.72 0 0 0 -1.88 7.86s-3.15.59-4.79-.73-2.56 0-2.56 0-2.83 4-.07 5.06 7 2.1 7 2.1a12.27 12.27 0 0 0 4.86 7.09c5 3.8 14.64-.59 14.64-.59l3.92-2.37s.14 3.55 3 4.07 4.07-.06 9.13-12.21c3-6.23 3.15-5.9 3.15-5.9l.33-.07s-2.3 11.88-1.38 15.1 4.66 2.89 4.66 2.89 2.1.72 3.74-5.19a80 80 0 0 1 4.86-12.08h.39s-1.38 11.88.72 15.76 7.68 1.18 7.68 1.18a42.29 42.29 0 0 0 4.47-2.63 15.73 15.73 0 0 0 11.12 3.16c14.51-2.88 19.7-6.76 19.7-6.76a12 12 0 0 0 10.24 6.89 16.91 16.91 0 0 0 13.65-4.92s-.07 3.61 3 4.86 5.18-5.45 5.18-5.45l5.19-13.85h.46s.26 8.86 5.38 10.31 11.75-3.68 11.75-3.68 1.45-.72 1.12-3.41a1.85 1.85 0 0 0 -2.67-1.72zm-141.27 3c.2-7.94 5.39-11.42 7.22-9.72s1.19 5.52-2.29 7.82-4.93 1.92-4.93 1.92zm67.94-30.85s4.73-12.41 5.91-6.37-10 24-10 24c.16-4.05 4.09-17.61 4.09-17.61zm5.71 34.46c-3.15 8.21-10.76 4.86-10.76 4.86s-.85-3 1.64-11.16 8.27-5 8.27-5 4.01 3.11.85 11.32zm21.08-3.61s-.73-2.63 2-7.62 4.86-2.29 4.86-2.29 2.36 2.56-.33 6.36a7.92 7.92 0 0 1 -6.53 3.57z" fill="#e34c32"/></svg>