<?xml version="1.0" encoding="utf-8"?>
<!-- Generator: Adobe Illustrator 19.0.0, SVG Export Plug-In . SVG Version: 6.00 Build 0)  -->
<svg version="1.1" id="图层_1" xmlns="http://www.w3.org/2000/svg" xmlns:xlink="http://www.w3.org/1999/xlink" x="0px" y="0px"
	 viewBox="0 0 208.5 300" style="enable-background:new 0 0 208.5 300;" xml:space="preserve">
<style type="text/css">
	.st0{fill:url(#XMLID_210_);}
	.st1{fill:url(#XMLID_211_);}
	.st2{fill:url(#XMLID_212_);}
	.st3{opacity:0.1;enable-background:new    ;}
	.st4{opacity:0.3;fill:#FFFFFF;enable-background:new    ;}
</style>
<g id="XMLID_1205_">
	<g id="XMLID_1206_" transform="translate(45.789223, 47.097648)">
		
			<linearGradient id="XMLID_210_" gradientUnits="userSpaceOnUse" x1="-371.9997" y1="381.6785" x2="-372.767" y2="383.079" gradientTransform="matrix(159.2833 0 0 -152.8247 59369.9102 58541.4297)">
			<stop  offset="0" style="stop-color:#268D83"/>
			<stop  offset="1" style="stop-color:#2EA19E"/>
		</linearGradient>
		<path id="XMLID_1219_" class="st0" d="M-35.8,2.9c-16.3,103.3-7.8,200-7.8,200H7.4c-4.8-25.8-22.2-143.6-7.8-144
			c7.8,1.2,43.2,99.9,43.2,99.9s7.8-1,15.7-1s15.7,1,15.7,1s35.4-98.7,43.2-99.9c14.5,0.4-2.9,118.2-7.8,144h50.9
			c0,0,8.5-96.7-7.8-200h-47.2c-9,0.1-43.1,60-47.1,60S20.4,3,11.4,2.9H-35.8L-35.8,2.9z"/>
		
			<radialGradient id="XMLID_211_" cx="-358.0483" cy="373.9691" r="0.6543" gradientTransform="matrix(18.4262 0 0 -18.4263 6631.7446 7079.9355)" gradientUnits="userSpaceOnUse">
			<stop  offset="0" style="stop-color:#DB7C7C"/>
			<stop  offset="1" style="stop-color:#C83737"/>
		</radialGradient>
		<path id="XMLID_1218_" class="st1" d="M48.4,190.8c0,6.7-5.4,12.1-12.1,12.1c-6.7,0-12.1-5.4-12.1-12.1c0-6.7,5.4-12.1,12.1-12.1
			C43,178.8,48.4,184.2,48.4,190.8L48.4,190.8z"/>
		
			<radialGradient id="XMLID_212_" cx="-357.4449" cy="373.9691" r="0.6543" gradientTransform="matrix(18.4262 0 0 -18.4263 6665.5273 7079.9355)" gradientUnits="userSpaceOnUse">
			<stop  offset="0" style="stop-color:#DB7C7C"/>
			<stop  offset="1" style="stop-color:#C83737"/>
		</radialGradient>
		<path id="XMLID_1217_" class="st2" d="M92.6,190.8c0,6.7-5.4,12.1-12.1,12.1c-6.7,0-12.1-5.4-12.1-12.1c0-6.7,5.4-12.1,12.1-12.1
			C87.2,178.8,92.6,184.2,92.6,190.8L92.6,190.8z"/>
		<path id="XMLID_1212_" class="st3" d="M150.3,6.3c7.4,49.8,9.1,97.5,8.9,133.1c-0.1,36.4-2.2,60-2.2,60h-42.9l-4.6,3.5h50.9
			c0,0,8.5-96.7-7.8-200L150.3,6.3z M15.3,5.1C28.6,19.9,51.8,59.5,55,59.5C46.5,48.6,25.7,14,15.3,5.1L15.3,5.1z M-3.8,55.5
			c-14.5,0.4,2.9,118.2,7.8,144h-44.5l-3,3.5H7.4c-4.8-25.7-22.1-142.4-8-144C-1.9,57-3,55.6-3.8,55.5L-3.8,55.5z M113.8,55.5
			c-7.8,1.2-43.2,99.9-43.2,99.9s-7.8-1-15.7-1c-4.6,0-8.6,0.3-11.3,0.5l-0.8,3.9c0,0,7.8-1,15.7-1s15.7,1,15.7,1
			s35.2-98.1,43.1-99.9C116.3,56.8,115.2,55.5,113.8,55.5L113.8,55.5z"/>
		<path id="XMLID_1207_" class="st4" d="M-35.8,2.9c-16.3,103.3-7.8,200-7.8,200l3-3.4c-1.5-22.8-5.6-105.3,8.2-193.2h47.2
			c1,0,2.3,0.8,3.9,2.2c-3.1-3.4-5.7-5.6-7.3-5.6H-35.8z M105.5,2.9c-9,0.1-43.1,60-47.1,60c1.6,2,2.9,3.5,3.5,3.5
			c3.9,0,38.1-59.9,47.1-60h41.6l2.1-3.5H105.5z M2.9,62.4c11.5,17.2,39.9,96.5,39.9,96.5l0.8-3.9c-7-19.3-33.8-91.6-40.6-92.6
			C3,62.4,2.9,62.4,2.9,62.4L2.9,62.4z M120.7,62.4c7.7,19.6-6.9,117.3-11.2,140.5l4.6-3.6C120,164.7,134.2,62.7,120.7,62.4
			L120.7,62.4z"/>
	</g>
</g>
</svg>
