<?xml version="1.0" encoding="utf-8"?>
<!-- Generator: Adobe Illustrator 19.0.0, SVG Export Plug-In . SVG Version: 6.00 Build 0)  -->
<svg version="1.1" id="图层_1" xmlns="http://www.w3.org/2000/svg" xmlns:xlink="http://www.w3.org/1999/xlink" x="0px" y="0px"
	 viewBox="0 0 121 300" style="enable-background:new 0 0 121 300;" xml:space="preserve">
<style type="text/css">
	.st0{fill:url(#XMLID_186_);}
	.st1{fill:url(#XMLID_187_);}
	.st2{fill:url(#XMLID_188_);}
</style>
<g id="XMLID_1711_">
	<g id="XMLID_1732_">
		
			<linearGradient id="XMLID_186_" gradientUnits="userSpaceOnUse" x1="-397.6866" y1="-718.2026" x2="-483.0568" y2="-718.7856" gradientTransform="matrix(-0.9771 -0.323 0.2901 -0.8773 -161.4326 -605.8291)">
			<stop  offset="0.2308" style="stop-color:#A09E70"/>
			<stop  offset="0.5575" style="stop-color:#A19F72"/>
			<stop  offset="0.6752" style="stop-color:#A6A479"/>
			<stop  offset="0.7591" style="stop-color:#AEAC84"/>
			<stop  offset="0.8269" style="stop-color:#BAB895"/>
			<stop  offset="0.885" style="stop-color:#CAC8AB"/>
			<stop  offset="0.9364" style="stop-color:#DDDBC7"/>
			<stop  offset="0.9818" style="stop-color:#F3F1E6"/>
			<stop  offset="1" style="stop-color:#FDFCF5"/>
		</linearGradient>
		<path id="XMLID_1737_" class="st0" d="M66.7,285l-7.2-2.4c0,0,0.9-36.7-12.3-39.2c-8.7-10.1,1.3-431.4,33-1.4
			c0,0-10.8,5.4-12.9,14.7C65.2,265.9,66.7,285,66.7,285z"/>
		
			<linearGradient id="XMLID_187_" gradientUnits="userSpaceOnUse" x1="-384.5386" y1="-568.7908" x2="-507.3582" y2="-781.5206" gradientTransform="matrix(-0.9771 -0.323 0.2901 -0.8773 -161.4326 -605.8291)">
			<stop  offset="0" style="stop-color:#36A038"/>
			<stop  offset="1" style="stop-color:#258F38"/>
		</linearGradient>
		<path id="XMLID_1736_" class="st1" d="M70.6,249.6c0,0,62.9-41.4,48.2-127.5C104.6,59.5,71.1,39,67.5,31.1c-4-5.6-8-15.4-8-15.4
			L62.2,190C62.2,190,56.7,243.2,70.6,249.6z"/>
		
			<linearGradient id="XMLID_188_" gradientUnits="userSpaceOnUse" x1="-373.287" y1="-721.7141" x2="-460.3441" y2="-663.2379" gradientTransform="matrix(-0.9771 -0.323 0.2901 -0.8773 -161.4326 -605.8291)">
			<stop  offset="0" style="stop-color:#289E39"/>
			<stop  offset="0.2617" style="stop-color:#32A13B"/>
			<stop  offset="0.7094" style="stop-color:#4EAB40"/>
			<stop  offset="1" style="stop-color:#63B244"/>
		</linearGradient>
		<path id="XMLID_1733_" class="st2" d="M55.8,251.9c0,0-59-40.3-55.6-111.3c3.4-71.1,45.1-106,53.2-112.3c5.2-5.6,5.5-7.8,5.9-13.3
			c3.7,7.9,3.1,118.1,3.5,130.9C64.2,196.1,59.9,242.5,55.8,251.9z"/>
	</g>
</g>
</svg>
