<?xml version="1.0" encoding="utf-8"?>
<!-- Generator: Adobe Illustrator 19.0.0, SVG Export Plug-In . SVG Version: 6.00 Build 0)  -->
<svg version="1.1" id="图层_1" xmlns="http://www.w3.org/2000/svg" xmlns:xlink="http://www.w3.org/1999/xlink" x="0px" y="0px"
	 viewBox="0 0 213.6 300" style="enable-background:new 0 0 213.6 300;" xml:space="preserve">
<style type="text/css">
	.st0{fill:#336791;}
	.st1{fill:#FFFFFF;}
	.st2{fill:none;stroke:#FFFFFF;stroke-width:3;stroke-linecap:round;stroke-linejoin:round;}
</style>
<g id="Layer_x0020_3_2_">
	<g id="XMLID_1581_">
		<path id="XMLID_1587_" d="M159.7,200.2c1.4-11.7,1-13.4,9.7-11.5l2.2,0.2c6.7,0.3,15.4-1.1,20.5-3.5c11-5.1,17.6-13.7,6.7-11.4
			c-24.8,5.1-26.6-3.3-26.6-3.3c26.2-38.9,37.2-88.3,27.7-100.4c-25.8-33-70.5-17.4-71.3-17l-0.2,0c-4.9-1-10.4-1.6-16.6-1.7
			c-11.2-0.2-19.8,2.9-26.2,7.9c0,0-79.7-32.9-76,41.3c0.8,15.8,22.6,119.4,48.6,88.1c9.5-11.4,18.7-21.1,18.7-21.1
			c4.6,3,10,4.6,15.8,4l0.4-0.4c-0.1,1.4-0.1,2.8,0.2,4.5c-6.7,7.5-4.7,8.8-18.1,11.6c-13.6,2.8-5.6,7.8-0.4,9.1
			c6.3,1.6,20.9,3.8,30.8-10l-0.4,1.6c2.6,2.1,2.5,15.1,2.8,24.4c0.4,9.3,1,18,2.9,23.1c1.9,5.1,4.1,18.3,21.8,14.5
			C147.4,247,158.6,242.4,159.7,200.2"/>
		<path id="XMLID_1583_" d="M126.9,260c-5.5,0-11.5-1.4-16.4-6.1c-4.8-4.5-6.7-10.3-7.8-13.7c-0.2-0.5-0.3-1-0.5-1.4
			c-2.3-6.1-3-14.8-3.5-25.9c-0.1-1.7-0.1-3.4-0.2-5.2c0-1.1-0.1-2.4-0.1-3.7c-7.6,3.3-16.4,3.9-25.9,1.5c-2.6-0.7-5.3-1.8-7.4-3.1
			c-1.7-1.1-3-2.2-3.9-3.4c-7.6,6.3-14.7,5.4-18.7,4.1c-7.1-2.4-13.3-8.9-19.2-20c-4.1-7.8-8.1-18.1-11.9-30.4
			c-6.5-21.4-10.7-44-11-51.4c-1.2-23.4,5.1-40.1,18.8-49.7c11.3-7.9,26.6-10.4,45.7-7.3c8.1,1.3,15.1,3.4,19.5,4.9
			c7.9-4.7,17.2-7,27.6-6.8c5.6,0.1,10.9,0.6,15.9,1.5c5.3-1.6,15.5-3.9,27.1-3.8c21.8,0.3,39.8,8.8,52.2,24.6
			c4.7,6,8.7,19.2,1.2,48.2c-4.6,17.9-12.7,37-22.6,53.7c2.6-0.1,6.2-0.5,11-1.5c2.8-0.6,5.1-0.7,7.2-0.4c4.3,0.6,7.7,3.4,9,7.2
			c3.7,11.3-12.2,19.7-17.1,22c-6.3,2.9-16.5,4.7-24.9,4.3l-0.4,0l-1.5-0.1c0,0.4-0.1,0.8-0.1,1.1c-0.1,0.6-0.1,1.1-0.2,1.7
			c-0.6,21.5-3.7,35.2-10,44.3c-6.7,9.6-16.1,12.3-24.3,14C132.3,259.6,129.7,260,126.9,260z M111,180.8c5.3,4.2,5.7,11.9,6.1,26.3
			c0,1.7,0.1,3.4,0.2,5c0.2,4.7,0.6,15.7,2.3,20.3c0.3,0.7,0.5,1.4,0.7,2.1c1.9,5.9,2.7,8.3,10.5,6.6c6.8-1.5,10.3-2.8,13-6.6
			c4-5.7,6.3-17.4,6.7-34.5l9.2,0.2l-9.2-1.1c0.1-0.7,0.2-1.4,0.2-2.1c0.8-6.9,1.4-12.3,6.3-15.8c3.1-2.2,6.6-2.5,9.6-2.2
			c-2.5-2.5-3.3-5.2-3.5-6.3l-0.8-3.8l2.2-3.2c11.4-17,20.9-37.9,25.9-57.3c5.6-21.8,3.2-31,2.2-32.3
			c-20.5-26.2-56.3-15.5-60.2-14.2l-0.7,0.4l-3.5,0.6l-1.8-0.4c-4.5-0.9-9.5-1.4-14.8-1.5c-8.3-0.1-15,1.8-20.5,6L87,70l-4.9-2
			c-9.6-3.9-37.6-11.8-52.3-1.4c-8.1,5.7-11.8,17.1-11,33.7c0.3,5.7,4.2,27.3,10.6,48.1c8.8,28.5,16.7,36.4,18.9,37.1
			c0.3-0.1,1.3-0.6,2.8-2.5c9.6-11.5,18.7-21.2,19.1-21.6l5.3-5.6l6.5,4.3c2.2,1.5,4.7,2.3,7.2,2.5l15.3-13.1l-2.2,22.8
			c0,0.4-0.1,1,0.1,2.1l0.7,4.3l-2.9,3.3c0,0-0.1,0.1-0.1,0.1l7.2,3.3L111,180.8z"/>
	</g>
	<g id="XMLID_1579_">
		<path id="XMLID_1580_" class="st0" d="M198.8,174c-24.8,5.1-26.6-3.3-26.6-3.3c26.2-38.9,37.2-88.3,27.7-100.4
			c-25.8-33-70.5-17.4-71.3-17l-0.2,0c-4.9-1-10.4-1.6-16.6-1.7c-11.2-0.2-19.8,2.9-26.2,7.9c0,0-79.7-32.8-76,41.3
			c0.8,15.8,22.6,119.4,48.6,88.1c9.5-11.4,18.7-21.1,18.7-21.1c4.6,3,10,4.6,15.8,4l0.4-0.4c-0.1,1.4-0.1,2.8,0.2,4.5
			c-6.7,7.5-4.7,8.8-18.1,11.6c-13.6,2.8-5.6,7.8-0.4,9.1c6.3,1.6,20.9,3.8,30.8-10l-0.4,1.6c2.6,2.1,4.5,13.7,4.2,24.2
			c-0.3,10.5-0.5,17.7,1.6,23.3c2.1,5.6,4.1,18.3,21.8,14.5c14.7-3.2,22.4-11.3,23.4-25c0.8-9.7,2.5-8.3,2.6-16.9l1.4-4.1
			c1.6-13.1,0.3-17.4,9.3-15.4l2.2,0.2c6.7,0.3,15.4-1.1,20.5-3.5C203.1,180.3,209.7,171.7,198.8,174L198.8,174z"/>
	</g>
	<g id="XMLID_1309_">
		<path id="XMLID_1574_" class="st1" d="M127.8,254.3c-14.8,0-19.5-11.7-21.4-16.5c-2.8-7-3.4-33.4-2.8-56.3c0-1.7,1.5-3.1,3.2-3
			c1.7,0,3,1.5,3,3.2c-0.7,25.6,0.3,48.7,2.3,53.8c3.2,8,8,14.9,21.6,12c13.1-2.8,17.8-7.6,20-20.3c1.7-9.7,5-37.4,5.4-42.8
			c0.1-1.7,1.6-3,3.3-2.8c1.7,0.1,3,1.6,2.8,3.3c-0.4,5.7-3.7,33.3-5.5,43.4c-2.6,15.1-9.3,21.9-24.8,25.2
			C132.4,254,130,254.3,127.8,254.3z"/>
	</g>
	<g id="XMLID_1307_">
		<path id="XMLID_1308_" class="st1" d="M48.2,197.5c-1.4,0-2.7-0.3-3.9-0.6c-9.6-3.2-18.8-18.8-27.2-46.3
			c-6.4-20.9-10.4-42.8-10.8-49.9c-1.1-21.1,4.4-36.1,16.2-44.4c9.9-7,23.7-9.1,41.2-6.3c12.7,2,22.5,6,22.9,6.2
			c1.6,0.6,2.3,2.4,1.7,4c-0.6,1.6-2.4,2.3-4,1.7l0,0c-0.4-0.2-37.7-15.1-58.3-0.5c-10,7.1-14.5,20.2-13.6,39.1
			c0.3,6,4.1,27.2,10.5,48.4c7.5,24.4,15.9,39.9,23.2,42.3c1.1,0.4,4.5,1.5,9.5-4.4c9.5-11.4,18.2-20.5,18.3-20.6
			c1.2-1.2,3.1-1.3,4.4-0.1c1.2,1.2,1.3,3.1,0.1,4.4c-0.1,0.1-8.6,9-18,20.3C56,195.9,51.7,197.5,48.2,197.5z"/>
	</g>
	<g id="XMLID_1305_">
		<path id="XMLID_1306_" class="st1" d="M172,173.5c-0.6,0-1.2-0.2-1.7-0.5c-1.4-1-1.8-2.9-0.8-4.3c26.5-39.3,35.8-86.7,27.9-96.8
			c-10-12.8-24.1-19.4-41.9-19.8c-13.2-0.3-23.7,3.1-25.5,3.7c-0.1,0.1-0.3,0.1-0.5,0.2c-1.9,0.6-3.3-0.4-3.8-1.6
			c-0.6-1.4-0.1-3.1,1.2-3.9c1.2-0.7,13.3-4.6,27.8-4.5c19.9,0.2,36.3,7.9,47.5,22.2c2.8,3.5,4.1,9.4,4,17.3
			c-0.1,7.2-1.5,16-3.9,25.6c-5.4,20.8-15.5,43.1-27.7,61.2C174,173,173,173.5,172,173.5z"/>
	</g>
	<g id="XMLID_1281_">
		<path id="XMLID_1282_" class="st1" d="M173.4,191.7c-4.6,0-8.7-0.6-11.1-2.1c-2.6-1.6-3.1-3.7-3.1-4.8
			c-0.7-11.8,5.6-14.1,9.2-15.2c-0.4-0.6-1-1.4-1.6-2.1c-2-2.5-4.7-5.8-6.8-10.9c-0.3-0.8-1.3-2.6-2.5-4.7
			c-6.4-11.5-19.7-35.4-11.1-47.7c4-5.7,11.8-7.9,23.3-6.8c-1.5-4.5-5.4-13-12.4-21.3c-8.2-9.7-22.7-21.3-45.4-21.7
			c-11.5-0.2-21,3.3-28,10.5c-15.9,16-15.4,45.2-15.4,45.5c0,1.7-1.3,3.1-3,3.2c-1.7,0-3.1-1.3-3.2-3c0-1.3-0.6-32.1,17.1-50
			c8.3-8.4,19.3-12.5,32.5-12.3c24.7,0.4,40.7,13,49.7,23.5c9.8,11.4,14.6,24,15,28.3c0.3,3.4-2.3,4-2.6,4.1l-1.1,0
			c-14.1-2.3-19.4,0.7-21.5,3.7c-6.4,9.2,6.1,31.6,11.5,41.2c1.4,2.5,2.4,4.2,2.8,5.4c1.8,4.2,4,7.1,5.9,9.4c1.6,2,3.1,3.8,3.6,5.9
			c0.3,0.4,3.7,5.1,23,1.1c5.1-1,8.1-0.1,9.1,2.7c1.8,5.5-8.3,11.9-13.9,14.5C188.2,190.2,180.3,191.7,173.4,191.7z M165.3,184.2
			c0.7,0.6,3.9,1.6,10.2,1.3c5.7-0.3,11.6-1.5,15.2-3.2c4.1-1.9,7.1-4.1,8.8-5.7c0,0-0.1,0-0.1,0c-12.6,2.6-21.6,2.3-26.6-1.1
			c-0.3-0.2-0.6-0.4-0.9-0.6c-0.4,0.1-0.9,0.3-1.3,0.4C167.6,176.2,164.9,176.9,165.3,184.2z"/>
	</g>
	<g id="XMLID_1277_">
		<path id="XMLID_1278_" class="st1" d="M83.7,200.4c-3.1,0-6.4-0.4-9.8-1.3c-1-0.2-9.6-2.5-9.4-8c0.1-5,7.3-6.5,10-7
			c9.5-2,10.1-2.7,13-6.5c0.9-1.1,2-2.5,3.4-4.1c4.9-5.5,9.6-3.6,11.6-2.8c3.1,1.3,5.7,4.4,6.8,8.1c1,3.4,0.5,6.6-1.3,9.1
			C102,196.2,93.6,200.4,83.7,200.4z M71.3,191.4c0.9,0.6,2.4,1.3,4.1,1.8c8.2,2.1,19.7,2.2,27.5-8.8c0.9-1.3,0.6-3,0.4-3.9
			c-0.5-1.9-1.9-3.6-3.2-4.1c-1.7-0.7-2.6-1.1-4.6,1.2l0,0c-1.4,1.5-2.3,2.8-3.2,3.8c-3.8,4.8-5.5,6.4-16.6,8.7
			C73.3,190.6,72,191.1,71.3,191.4z"/>
	</g>
	<g id="XMLID_1273_">
		<path id="XMLID_1274_" class="st1" d="M92.7,178.5c-1.5,0-2.8-1.1-3-2.6c-0.1-0.4-0.1-0.8-0.1-1.2c-7.2-0.2-14.2-3.3-19.5-8.9
			c-6.8-7.1-9.8-16.8-8.4-26.8c1.5-10.8,0.9-20.2,0.6-25.3c-0.1-1.4-0.1-2.5-0.1-3.2c0-0.9,0-3.4,8.1-7.5c2.9-1.4,8.6-4,14.8-4.6
			c10.4-1.1,17.3,3.6,19.4,13.1c5.5,25.5,0.4,36.7-3.3,45c-0.7,1.5-1.3,3-1.9,4.4l-0.5,1.2c-1.9,5.2-3.6,9.7-3.1,13
			c0.3,1.7-0.9,3.3-2.6,3.5C93,178.5,92.9,178.5,92.7,178.5z M68.3,111.3c0,0.5,0.1,1.2,0.1,1.9c0.3,5.3,0.9,15.2-0.7,26.6
			c-1.1,8.1,1.3,16,6.8,21.7c4.3,4.5,9.9,7,15.7,7c0.7-2.7,1.7-5.6,2.9-8.7l0.5-1.2c0.6-1.6,1.3-3.1,2-4.7
			c3.5-7.9,7.9-17.7,2.9-41.1c-1-4.5-3.3-7.2-7.2-8.1C82.7,102.7,70.8,109,68.3,111.3z"/>
	</g>
	<g id="XMLID_1254_">
		<path id="XMLID_1272_" class="st1" d="M85.2,110c-0.1,1,1.8,3.7,4.4,4.1c2.6,0.4,4.8-1.7,4.9-2.7c0.1-1-1.8-2.1-4.4-2.5
			C87.6,108.5,85.4,109,85.2,110L85.2,110z"/>
		<path id="XMLID_1255_" class="st1" d="M90.2,115.1c-0.2,0-0.5,0-0.7,0c-1.6-0.2-3.3-1.2-4.4-2.7c-0.4-0.5-1-1.5-0.9-2.5
			c0-0.3,0.2-0.9,0.8-1.3c1-0.8,3.1-1.1,5.3-0.8c2.7,0.4,5.6,1.7,5.3,3.6C95.4,113,92.9,115.1,90.2,115.1z M86.3,110.2
			c0.2,0.7,1.6,2.6,3.5,2.8c1.9,0.3,3.5-1.3,3.8-1.8c-0.2-0.3-1.4-1.1-3.5-1.4C87.9,109.6,86.6,109.9,86.3,110.2z"/>
	</g>
	<g id="XMLID_1249_">
		<path id="XMLID_1253_" class="st1" d="M164,107.9c0.1,1-1.8,3.7-4.4,4.1c-2.6,0.4-4.8-1.7-4.9-2.7c-0.1-1,1.8-2.1,4.4-2.5
			S163.8,106.9,164,107.9L164,107.9z"/>
		<path id="XMLID_1250_" class="st1" d="M159,112.6c-2.5,0-4.7-2-4.9-3.2c-0.2-1.5,2.3-2.7,4.9-3.1c2.6-0.4,5.3,0.1,5.5,1.6v0
			c0.1,0.7-0.4,1.7-1.3,2.7c-0.6,0.6-1.8,1.7-3.5,1.9C159.4,112.5,159.2,112.6,159,112.6z M160.6,107.2c-0.5,0-1,0-1.5,0.1
			c-2.7,0.4-4.1,1.5-4,1.9c0.1,0.7,2,2.6,4.4,2.3c1.4-0.2,2.4-1.1,2.9-1.6c0.8-0.8,1.1-1.6,1.1-1.8
			C163.4,107.7,162.4,107.2,160.6,107.2z"/>
	</g>
	<g id="XMLID_1247_">
		<path id="XMLID_1248_" class="st1" d="M167.7,166c-0.6,0-1.2-0.2-1.7-0.5c-1.4-0.9-1.8-2.9-0.8-4.3c6-9,4.9-18.2,3.8-27.1
			c-0.5-3.8-0.9-7.8-0.8-11.6c0.1-3.9,0.6-7.1,1.1-10.2c0.6-3.7,1.1-7.1,0.9-11.2c-0.1-1.7,1.2-3.1,2.9-3.2c1.7-0.1,3.1,1.2,3.2,2.9
			c0.3,4.7-0.4,8.7-0.9,12.5c-0.5,2.9-0.9,5.9-1,9.5c-0.1,3.3,0.3,6.9,0.8,10.6c1.1,9.5,2.4,20.3-4.8,31.2
			C169.7,165.5,168.7,166,167.7,166z"/>
	</g>
	<g id="XMLID_1245_">
		<path id="XMLID_1246_" class="st2" d="M0,69.8"/>
	</g>
</g>
</svg>
