<svg xmlns="http://www.w3.org/2000/svg" viewBox="0 0 36 50"><style>.st0{fill:#29AAE1;} .st1{fill:#0372BC;}</style><path class="st0" d="M2.2 29c.9.4 1.7.9 2.4 1.4 3.8 2.5 7.3 5.4 10.7 8.4.3.3.6.5.9.8.2.2.3.2.4-.1 1.6-3 3.6-5.7 5.7-8.3 3.6-4.6 7.8-8.6 12.4-12.2.1 0 .1-.1.2-.1 0 0 .1 0 .1.1-1.2 1.2-2.3 2.5-3.4 3.8-.7.8-1.4 1.7-2 2.6-.4.5-.7 1-1 1.5-.1.1 0 .3 0 .4.4.9.8 1.9 1.1 2.9.4 1.2.6 2.4.6 3.7 0 1-.1 2-.3 2.9-.5 2.4-1.5 4.5-3.2 6.3-1.5 1.7-3.4 3.1-5.5 4-1.4.6-3 1.1-4.5 1.2-1.8.1-3.5-.1-5.2-.7-1.9-.7-3.7-1.6-5.3-2.9-1.5-1.3-2.7-2.7-3.6-4.5-.7-1.5-1.2-3-1.4-4.7-.2-1.5-.1-2.9.2-4.4.2-.7.4-1.4.5-2 .1 0 .1-.1.2-.1z"/><path class="st0" d="M1.5 17.2c.9.5 1.9 1 2.8 1.5.7.3 1.5.7 2.2 1.1.2.1.4.1.5-.2 3.4-5.6 6.5-11.3 8.9-17.4v-.1c.8 2.4 1.8 4.6 2.9 6.9.9 1.9 1.9 3.8 2.9 5.6 1.1 2.1 2.3 4.1 3.5 6.2.3.6.7 1.1.9 1.8-1 .7-1.9 1.4-2.9 2.1-2.3 1.8-4.6 3.6-6.8 5.6-.3.3-.5.3-.8 0-4.5-4.3-9.2-8.5-13.8-12.7-.1-.1-.3-.3-.3-.4-.1 0-.1 0 0 0z"/><path class="st1" d="M2 29.2c-.2.7-.4 1.4-.5 2-.3 1.5-.4 2.9-.2 4.4.2 1.6.7 3.2 1.4 4.7.9 1.8 2.1 3.2 3.6 4.5 1.6 1.3 3.4 2.3 5.3 2.9 1.7.6 3.4.8 5.2.7 1.6-.1 3.1-.6 4.5-1.2 2.1-.9 4-2.3 5.5-4 1.6-1.8 2.7-4 3.2-6.3.2-1 .3-2 .3-2.9 0-1.2-.2-2.5-.6-3.7-.3-1-.7-1.9-1.1-2.9-.1-.1-.1-.3 0-.4.3-.5.6-1.1 1-1.5 1 1.9 1.9 3.8 2.4 5.9 1 4.4 0 8.5-2.8 12-1.8 2.3-4.1 3.9-6.7 4.9-1 .4-2.1.7-3.1 1h-.2-.1c-1.6.3-3.2.3-4.8 0H14c-1.2-.3-2.4-.6-3.5-1.1-4.6-2.2-8-5.4-9.2-10.6-.7-2.8-.4-5.6.6-8.2 0-.1 0-.2.1-.2zM26.1 22.7c-.2-.6-.6-1.2-.9-1.8-1.2-2.1-2.4-4.1-3.5-6.2-1-1.9-2-3.7-2.9-5.6-1-2.3-2-4.6-2.9-6.9.2-.6.4-1.1.6-1.6.1 0 .1.1.1.1 2.3 6.2 5.4 12.1 8.8 17.8.6 1 1.2 2.1 1.8 3.1.1.2.1.3-.1.5-.3.1-.6.3-1 .6z"/></svg>